<?xml version="1.0" standalone="no"?>
<!DOCTYPE svg PUBLIC "-//W3C//DTD SVG 20010904//EN"
 "http://www.w3.org/TR/2001/REC-SVG-20010904/DTD/svg10.dtd">
<svg version="1.0" xmlns="http://www.w3.org/2000/svg"
 width="1200.000000pt" height="1200.000000pt" viewBox="0 0 1200.000000 1200.000000"
 preserveAspectRatio="xMidYMid meet">
<g transform="translate(0.000000,1200.000000) scale(0.100000,-0.100000)"
fill="#0a97d9" stroke="none">
<path d="M 0 6000 L 0 0 L 6000 0 L 12000 0 L 12000 6000 L 12000 12000 L 6000 12000 L 0 12000 L 0 6000 Z M 1460 9825 L 1460 8680 L 1240 8680 L 1020 8680 L 1020 9596 C 1020 10428 1019 10512 1004 10506 C 927 10477 708 10400 700 10400 C 694 10400 690 10461 690 10558 L 690 10716 L 833 10788 C 911 10828 1007 10884 1045 10914 L 1115 10968 L 1288 10969 L 1460 10970 L 1460 9825 Z M 2740 10260 L 2740 9550 L 2855 9550 L 2970 9550 L 2970 9385 L 2970 9220 L 2855 9220 L 2740 9220 L 2740 8950 L 2740 8680 L 2540 8680 L 2340 8680 L 2340 8950 L 2340 9220 L 1995 9220 L 1650 9220 L 1650 9392 L 1650 9565 L 1926 10215 C 2078 10572 2213 10889 2226 10918 L 2249 10970 L 2494 10970 L 2740 10970 L 2740 10260 Z M 4327 7179 C 4884 6807 5432 6809 5876 7186 C 5911 7216 5947 7240 5956 7240 C 5965 7240 5997 7218 6027 7190 C 6106 7118 6239 7033 6342 6988 C 6571 6889 6812 6875 7078 6945 C 7251 6991 7460 7091 7612 7201 C 7649 7228 7682 7250 7684 7250 C 7686 7250 7721 7222 7762 7188 C 7976 7008 8195 6912 8438 6892 C 8656 6873 8901 6919 9104 7015 C 9193 7058 9194 7056 9198 6863 L 9200 6703 L 9157 6667 C 9030 6563 8873 6485 8727 6454 C 8634 6434 8466 6434 8368 6455 C 8173 6495 7966 6606 7795 6761 C 7759 6793 7724 6820 7716 6820 C 7709 6820 7679 6799 7649 6773 C 7405 6560 7161 6460 6882 6460 C 6597 6460 6287 6574 6033 6772 C 5998 6798 5964 6820 5956 6820 C 5947 6820 5903 6793 5858 6759 C 5685 6632 5485 6536 5293 6488 C 5219 6469 5177 6466 5030 6465 C 4869 6465 4847 6467 4756 6493 C 4581 6541 4424 6628 4270 6761 C 4232 6793 4196 6820 4190 6820 C 4183 6820 4148 6793 4112 6759 C 3982 6641 3794 6531 3640 6482 C 3422 6413 3189 6425 2993 6515 C 2900 6558 2760 6650 2726 6691 C 2701 6721 2700 6725 2700 6864 C 2700 7016 2709 7049 2746 7037 C 2756 7034 2808 7013 2861 6991 C 3143 6872 3450 6854 3720 6942 C 3862 6987 4043 7096 4162 7206 C 4188 7230 4212 7250 4215 7250 C 4219 7250 4269 7218 4327 7179 Z M 4269 6221 C 4330 6173 4469 6089 4565 6044 C 4762 5950 4946 5907 5145 5906 C 5411 5905 5622 5984 5850 6168 C 5899 6207 5947 6240 5956 6240 C 5965 6240 5997 6217 6028 6190 C 6201 6036 6419 5937 6643 5909 C 6919 5875 7271 5975 7559 6168 C 7605 6200 7653 6232 7666 6240 C 7687 6253 7692 6251 7747 6204 C 7903 6069 8078 5972 8255 5923 C 8348 5897 8367 5895 8545 5896 C 8724 5897 8742 5898 8850 5927 C 8913 5944 9009 5977 9062 6000 C 9116 6023 9167 6040 9177 6038 C 9193 6035 9195 6018 9198 5868 L 9200 5702 L 9118 5640 C 9026 5571 8870 5492 8770 5464 C 8718 5449 8673 5445 8545 5446 C 8402 5446 8376 5449 8299 5473 C 8121 5527 7935 5633 7798 5759 C 7762 5793 7724 5820 7715 5820 C 7706 5820 7670 5795 7637 5764 C 7501 5641 7315 5539 7142 5493 C 7056 5470 7026 5466 6880 5466 C 6741 5466 6700 5470 6620 5489 C 6403 5542 6176 5656 5978 5812 L 5951 5833 L 5908 5798 C 5715 5641 5435 5512 5210 5475 C 4869 5420 4560 5515 4268 5765 C 4232 5795 4197 5820 4191 5820 C 4184 5820 4146 5791 4106 5756 C 3956 5625 3756 5513 3595 5470 C 3483 5439 3292 5432 3186 5454 C 3036 5485 2841 5584 2738 5682 L 2700 5717 L 2700 5859 C 2700 6000 2708 6040 2734 6040 C 2742 6040 2785 6024 2830 6005 C 3310 5800 3777 5868 4153 6199 C 4185 6227 4216 6250 4222 6250 C 4227 6250 4249 6237 4269 6221 Z M 2868 4665 C 3079 4634 3283 4558 3477 4438 C 3753 4270 4062 3939 4233 3630 L 4250 3598 L 4298 3638 C 4572 3866 5059 4172 5410 4338 C 6057 4643 6588 4739 7120 4649 C 7796 4534 8493 4097 9081 3420 C 9187 3298 9250 3213 9250 3194 C 9249 3149 8920 2777 8721 2596 C 8404 2308 8146 2129 7826 1974 C 7578 1854 7362 1783 7113 1738 C 6940 1707 6546 1705 6377 1733 C 5888 1815 5365 2034 4804 2390 C 4663 2479 4443 2635 4333 2723 C 4293 2754 4257 2780 4252 2780 C 4247 2780 4233 2761 4220 2738 C 4106 2532 3873 2255 3684 2099 C 3515 1961 3303 1843 3110 1780 C 3012 1748 2796 1706 2758 1712 C 2722 1717 2712 1746 2734 1783 C 2962 2174 3111 2571 3166 2929 C 3185 3056 3188 3310 3171 3430 C 3122 3778 2967 4206 2762 4557 C 2716 4636 2712 4654 2738 4669 C 2760 4682 2754 4682 2868 4665 Z"></path><path d="M2327 10477 c-24 -64 -327 -915 -327 -920 0 -4 77 -7 170 -7 l170 0
0 470 c0 259 -2 470 -4 470 -2 0 -6 -6 -9 -13z"></path><path d="M7390 3826 c-117 -34 -211 -114 -261 -220 -92 -196 -7 -432 189 -528
62 -31 73 -33 172 -33 99 0 110 2 171 32 80 40 159 120 197 200 24 52 27 70
27 163 0 99 -2 109 -34 172 -66 132 -194 217 -339 224 -46 2 -95 -2 -122 -10z"></path>
</g>
</svg>
