<?xml version="1.0" standalone="no"?>
<!DOCTYPE svg PUBLIC "-//W3C//DTD SVG 20010904//EN"
 "http://www.w3.org/TR/2001/REC-SVG-20010904/DTD/svg10.dtd">
<svg version="1.0" xmlns="http://www.w3.org/2000/svg"
 width="1200.000000pt" height="1200.000000pt" viewBox="0 0 1200.000000 1200.000000"
 preserveAspectRatio="xMidYMid meet">
<g transform="translate(0.000000,1200.000000) scale(0.100000,-0.100000)"
fill="#ff3a21" stroke="none">
<path d="M 0 6000 L 0 0 L 6000 0 L 12000 0 L 12000 6000 L 12000 12000 L 6000 12000 L 0 12000 L 0 6000 Z M 2070 10780 L 2070 10590 L 1725 10590 L 1380 10590 L 1376 10568 C 1373 10555 1369 10478 1365 10395 C 1362 10313 1357 10213 1354 10173 L 1348 10101 L 1422 10139 C 1551 10206 1737 10219 1863 10170 C 2108 10076 2219 9675 2144 9157 C 2118 8976 2072 8874 1974 8780 C 1861 8671 1731 8633 1505 8643 C 1359 8650 1300 8663 1211 8711 C 1105 8767 1029 8871 996 9005 C 977 9078 960 9216 960 9287 L 960 9340 L 1174 9340 L 1387 9340 L 1393 9238 C 1400 9113 1420 9044 1460 9005 C 1485 8981 1501 8976 1552 8972 C 1713 8960 1758 9074 1747 9475 C 1739 9788 1700 9870 1559 9870 C 1470 9870 1404 9816 1376 9718 L 1363 9675 L 1171 9672 L 978 9670 L 984 9767 C 987 9821 995 10108 1001 10405 C 1007 10702 1013 10951 1015 10958 C 1019 10967 1133 10970 1545 10970 L 2070 10970 L 2070 10780 Z M 8780 6700 L 8780 5930 L 8513 5932 L 8245 5935 L 8240 6218 L 8235 6500 L 7913 6178 L 7591 5855 L 7642 5775 C 7955 5279 8032 4662 7849 4106 C 7704 3664 7403 3286 7000 3037 C 6831 2933 6572 2830 6387 2794 L 6300 2777 L 6302 2486 L 6305 2195 L 6608 2192 L 6910 2190 L 6908 1907 L 6905 1625 L 6603 1622 L 6300 1620 L 6300 1331 C 6300 1077 6298 1041 6284 1036 C 6275 1033 6150 1030 6006 1030 C 5816 1030 5741 1033 5732 1042 C 5723 1051 5720 1130 5720 1337 L 5720 1620 L 5418 1622 L 5115 1625 L 5115 1905 L 5115 2185 L 5418 2188 L 5720 2190 L 5720 2480 L 5720 2769 L 5673 2775 C 5585 2787 5396 2837 5295 2875 C 4810 3057 4430 3405 4206 3871 C 4081 4131 4025 4355 4013 4640 C 3993 5135 4153 5604 4474 5987 C 4989 6603 5834 6842 6595 6589 C 6786 6526 6996 6418 7140 6310 L 7194 6269 L 7522 6597 L 7850 6925 L 7548 6930 L 7245 6935 L 7242 7203 L 7240 7470 L 8010 7470 L 8780 7470 L 8780 6700 Z"></path>
<path d="M5810 6159 c-624 -77 -1119 -537 -1252 -1163 -28 -135 -30 -397 -4 -531 107 -545 479 -963 1004 -1129 194 -61 475 -79 667 -42 304 58 562 193 775 406 209 209 338 451 401 750 32 152 31 382 0 540 -109 539 -489 958 -1013 1119 -157 48 -417 71 -578 50z m1065 -1074 l0 -230 -890 0 -890 0 -3 220 c-1 121 0 225 3 232 3 11 179 13 892 11 l888 -3 0 -230z m0 -760 l0 -230 -890 0 -890 0 -3 220 c-1 121 0 225 3 232 3 11 179 13 892 11 l888 -3 0 -230z"></path>
</g>
</svg>
