<?xml version="1.0" standalone="no"?>
<!DOCTYPE svg PUBLIC "-//W3C//DTD SVG 20010904//EN"
 "http://www.w3.org/TR/2001/REC-SVG-20010904/DTD/svg10.dtd">
<svg version="1.0" xmlns="http://www.w3.org/2000/svg"
 width="1200.000000pt" height="1200.000000pt" viewBox="0 0 1200.000000 1200.000000"
 preserveAspectRatio="xMidYMid meet">
<g transform="translate(0.000000,1200.000000) scale(0.100000,-0.100000)"
fill="#e5243b" stroke="none">
<path d="M 0 6000 L 0 0 L 6000 0 L 12000 0 L 12000 6000 L 12000 12000 L 6000 12000 L 0 12000 L 0 6000 Z M 1488 9823 L 1490 8670 L 1270 8670 L 1050 8670 L 1050 9590 C 1050 10096 1048 10510 1046 10510 C 1044 10510 1025 10503 1005 10494 C 984 10486 911 10459 843 10435 L 720 10391 L 720 10560 C 720 10679 723 10730 731 10730 C 748 10730 951 10834 1018 10876 C 1049 10896 1092 10928 1113 10947 L 1151 10980 L 1318 10978 L 1485 10975 L 1488 9823 Z M 2288 6605 C 2502 6556 2613 6315 2510 6121 C 2472 6051 2432 6012 2357 5973 C 2312 5949 2293 5945 2215 5945 C 2138 5945 2117 5949 2068 5972 C 1781 6106 1825 6531 2134 6606 C 2202 6622 2210 6622 2288 6605 Z M 9662 6609 C 9788 6582 9884 6498 9920 6383 C 9944 6306 9945 6251 9925 6184 C 9843 5906 9476 5852 9317 6096 C 9191 6289 9298 6551 9524 6606 C 9590 6622 9599 6622 9662 6609 Z M 5177 6398 C 5255 6369 5329 6295 5359 6215 C 5403 6099 5374 5964 5288 5878 C 5220 5809 5161 5785 5060 5785 C 4960 5785 4900 5809 4835 5875 C 4769 5940 4746 6000 4745 6100 C 4745 6173 4749 6193 4773 6242 C 4846 6390 5020 6457 5177 6398 Z M 7074 6400 C 7146 6373 7211 6314 7246 6243 C 7271 6193 7275 6174 7274 6100 C 7274 6030 7270 6007 7251 5970 C 7216 5904 7192 5875 7146 5842 C 7020 5753 6853 5763 6741 5868 C 6668 5937 6645 5994 6645 6105 C 6645 6186 6648 6201 6675 6249 C 6754 6392 6923 6456 7074 6400 Z M 2652 5809 C 2815 5775 2954 5644 2995 5485 C 3007 5436 3010 5347 3010 4958 C 3010 4524 3013 4465 3035 4500 C 3038 4506 3060 4510 3084 4510 C 3136 4510 3165 4482 3238 4360 C 3314 4233 3348 4190 3385 4174 C 3433 4154 3727 4154 3775 4174 C 3812 4190 3854 4243 3926 4365 C 3993 4479 4024 4510 4073 4510 C 4094 4510 4120 4505 4131 4500 C 4145 4492 4150 4493 4150 4502 C 4150 4534 4423 5398 4447 5443 C 4482 5508 4556 5581 4612 5609 C 4655 5629 4668 5630 5061 5630 C 5438 5630 5468 5628 5507 5610 C 5562 5586 5637 5509 5673 5444 C 5712 5369 5970 4527 5971 4468 C 5972 4409 5954 4372 5910 4342 C 5844 4298 5754 4325 5715 4400 C 5709 4414 5679 4506 5651 4605 C 5622 4704 5595 4796 5590 4810 C 5585 4824 5567 4885 5550 4945 C 5484 5172 5475 5195 5452 5198 C 5439 5200 5427 5194 5420 5181 C 5408 5158 5410 5151 5495 4845 C 5521 4752 5546 4662 5550 4645 C 5554 4629 5576 4548 5599 4465 C 5642 4312 5712 4056 5756 3896 C 5770 3846 5778 3800 5776 3793 C 5772 3783 5732 3780 5605 3780 L 5440 3780 L 5440 3283 L 5440 2787 L 5415 2743 C 5344 2623 5179 2635 5119 2765 C 5102 2802 5100 2840 5100 3293 L 5100 3780 L 5060 3780 L 5020 3780 L 5020 3296 C 5020 2962 5016 2802 5009 2779 C 4961 2638 4772 2619 4703 2749 L 4680 2793 L 4680 3287 L 4680 3780 L 4515 3780 C 4383 3780 4348 3783 4344 3794 C 4341 3802 4354 3863 4374 3931 C 4393 3999 4429 4129 4454 4220 C 4479 4311 4540 4531 4589 4710 C 4715 5168 4712 5157 4700 5180 C 4686 5206 4664 5205 4646 5178 C 4638 5165 4584 4991 4525 4790 C 4466 4589 4412 4414 4405 4400 C 4384 4360 4346 4330 4307 4323 C 4260 4316 4228 4324 4192 4355 C 4162 4380 4161 4380 4155 4359 C 4151 4348 4089 4232 4017 4102 C 3853 3806 3857 3834 3935 3545 C 3966 3430 3998 3315 4006 3291 C 4031 3212 4029 3210 3950 3210 L 3880 3210 L 3880 2983 C 3880 2733 3877 2721 3821 2683 C 3760 2642 3676 2661 3633 2727 C 3617 2751 3615 2783 3612 2982 L 3609 3210 L 3580 3210 L 3551 3210 L 3548 2982 C 3545 2783 3543 2751 3527 2727 C 3486 2663 3404 2643 3343 2680 C 3284 2716 3280 2735 3280 2985 L 3280 3210 L 3210 3210 C 3172 3210 3140 3214 3140 3220 C 3140 3225 3170 3338 3207 3472 C 3263 3671 3275 3728 3275 3790 L 3275 3865 L 3135 4117 L 2995 4369 L 2969 4344 C 2908 4285 2798 4306 2760 4384 C 2741 4425 2740 4444 2740 4851 C 2740 5168 2737 5279 2728 5288 C 2712 5304 2663 5303 2653 5288 C 2649 5281 2643 4714 2640 4028 L 2635 2782 L 2604 2743 C 2560 2689 2516 2666 2455 2666 C 2389 2666 2333 2695 2295 2749 L 2265 2792 L 2260 3523 C 2257 3926 2251 4261 2247 4268 C 2242 4274 2226 4280 2210 4280 C 2194 4280 2178 4274 2173 4268 C 2169 4261 2163 3924 2160 3518 L 2155 2782 L 2124 2743 C 2080 2689 2036 2666 1975 2666 C 1909 2666 1853 2695 1815 2749 L 1785 2792 L 1780 4033 C 1777 4716 1771 5281 1767 5288 C 1757 5303 1708 5304 1692 5288 C 1683 5279 1680 5167 1680 4848 C 1680 4384 1678 4369 1626 4335 C 1612 4325 1600 4310 1600 4300 C 1600 4290 1571 4127 1535 3938 C 1499 3749 1461 3548 1450 3490 C 1340 2901 1298 2694 1283 2678 C 1261 2654 1205 2655 1180 2680 C 1154 2706 1155 2728 1185 2885 C 1224 3091 1358 3801 1386 3950 C 1416 4112 1449 4288 1455 4314 C 1457 4325 1449 4347 1437 4364 C 1415 4395 1415 4398 1412 4900 C 1410 5227 1413 5422 1420 5455 C 1455 5625 1583 5759 1753 5805 C 1820 5823 2569 5826 2652 5809 Z M 10042 5809 C 10208 5774 10351 5634 10389 5469 C 10395 5442 10400 5223 10400 4915 C 10400 4427 10399 4404 10380 4373 C 10344 4313 10259 4292 10199 4327 C 10183 4337 10161 4363 10150 4385 C 10131 4424 10130 4448 10130 4851 C 10130 5168 10127 5279 10118 5288 C 10099 5307 10052 5303 10040 5281 C 10033 5268 10030 4861 10030 4035 C 10030 2838 10030 2808 10010 2771 C 9985 2720 9943 2686 9886 2670 C 9800 2646 9707 2691 9669 2775 C 9652 2813 9650 2858 9650 3535 C 9650 4082 9647 4259 9638 4268 C 9619 4287 9572 4283 9560 4261 C 9553 4248 9550 4000 9550 3525 C 9550 2834 9549 2808 9530 2771 C 9505 2720 9463 2686 9406 2670 C 9320 2646 9227 2691 9189 2775 C 9171 2813 9170 2873 9170 4046 C 9170 4989 9167 5279 9158 5288 C 9151 5295 9134 5300 9120 5300 C 9106 5300 9089 5295 9082 5288 C 9073 5279 9070 5167 9070 4847 C 9070 4467 9068 4414 9053 4383 C 9021 4314 8930 4289 8862 4330 C 8800 4368 8800 4368 8800 4914 C 8800 5243 8804 5427 8811 5462 C 8846 5626 8975 5760 9143 5805 C 9210 5823 9959 5826 10042 5809 Z M 7407 5608 C 7464 5580 7532 5512 7569 5447 C 7611 5373 7870 4526 7870 4463 C 7870 4402 7841 4354 7793 4333 C 7715 4301 7637 4339 7605 4424 C 7597 4447 7543 4624 7485 4819 C 7428 5014 7374 5180 7365 5189 C 7347 5207 7317 5195 7312 5167 C 7310 5159 7343 5027 7386 4874 C 7428 4720 7477 4541 7495 4475 C 7526 4363 7597 4103 7655 3895 C 7669 3846 7680 3799 7680 3793 C 7680 3783 7639 3780 7510 3780 L 7340 3780 L 7340 3287 L 7340 2793 L 7317 2750 C 7279 2677 7188 2642 7113 2671 C 7071 2686 7021 2739 7010 2780 C 7004 2801 7000 3012 7000 3298 L 7000 3780 L 6955 3780 L 6910 3780 L 6910 3279 C 6910 2928 6907 2772 6899 2757 C 6836 2635 6669 2629 6603 2745 L 6580 2785 L 6580 3283 L 6580 3780 L 6410 3780 C 6251 3780 6240 3781 6240 3799 C 6240 3809 6258 3882 6280 3961 C 6302 4040 6332 4148 6346 4200 C 6361 4252 6381 4324 6391 4360 C 6401 4396 6430 4502 6455 4595 C 6481 4689 6508 4785 6515 4810 C 6523 4835 6547 4924 6570 5008 C 6602 5126 6608 5165 6600 5180 C 6589 5200 6556 5207 6546 5191 C 6541 5184 6507 5073 6449 4875 C 6422 4784 6369 4609 6335 4495 C 6320 4446 6299 4393 6288 4377 C 6235 4302 6129 4302 6071 4376 C 6028 4431 6038 4481 6181 4948 C 6253 5183 6324 5399 6338 5428 C 6371 5496 6456 5584 6512 5610 C 6552 5628 6579 5630 6959 5630 C 7355 5630 7364 5630 7407 5608 Z M 3673 4840 C 3781 4800 3845 4706 3844 4590 C 3843 4513 3825 4467 3775 4412 C 3671 4296 3489 4297 3383 4413 C 3336 4466 3317 4513 3316 4585 C 3315 4664 3339 4725 3393 4778 C 3472 4856 3572 4878 3673 4840 Z M 8433 4840 C 8541 4800 8605 4706 8604 4590 C 8603 4513 8585 4467 8535 4412 C 8482 4353 8422 4327 8341 4327 C 8263 4327 8217 4345 8162 4395 C 8103 4447 8076 4510 8076 4590 C 8076 4706 8139 4799 8244 4839 C 8310 4865 8366 4865 8433 4840 Z M 8651 4207 C 8724 4174 8748 4133 8874 3818 C 8957 3608 8991 3514 8986 3497 C 8979 3466 8936 3424 8905 3416 C 8892 3413 8870 3414 8857 3419 C 8830 3429 8802 3494 8709 3760 L 8665 3885 L 8660 3325 C 8654 2703 8657 2722 8587 2680 C 8526 2643 8435 2664 8399 2724 C 8382 2752 8380 2778 8380 2998 C 8380 3249 8376 3280 8340 3280 C 8304 3280 8300 3249 8300 2999 C 8300 2774 8299 2755 8280 2725 C 8223 2632 8085 2642 8040 2743 C 8021 2783 8020 2814 8020 3335 C 8020 3648 8016 3880 8011 3875 C 8003 3866 7945 3685 7888 3495 C 7853 3379 7787 3339 7723 3394 C 7681 3430 7686 3471 7754 3645 C 7942 4125 7978 4188 8080 4219 C 8101 4225 8213 4228 8365 4226 C 8571 4224 8621 4221 8651 4207 Z" style="paint-order: fill;"></path>
</g>
</svg>
