<?xml version="1.0" standalone="no"?>
<!DOCTYPE svg PUBLIC "-//W3C//DTD SVG 20010904//EN"
 "http://www.w3.org/TR/2001/REC-SVG-20010904/DTD/svg10.dtd">
<svg version="1.0" xmlns="http://www.w3.org/2000/svg"
 width="1200.000000pt" height="1200.000000pt" viewBox="0 0 1200.000000 1200.000000"
 preserveAspectRatio="xMidYMid meet">
<g transform="translate(0.000000,1200.000000) scale(0.100000,-0.100000)"
fill="#dda83a" stroke="none">
<path d="M 0 6000 L 0 0 L 6000 0 L 12000 0 L 12000 6000 L 12000 12000 L 6000 12000 L 0 12000 L 0 6000 Z M 1746 10985 C 1838 10968 1948 10917 2007 10866 C 2139 10751 2208 10528 2180 10304 C 2155 10108 2112 10024 1750 9480 C 1585 9232 1450 9027 1450 9025 C 1450 9022 1603 9020 1790 9020 L 2130 9020 L 2130 8850 L 2130 8680 L 1540 8680 L 950 8680 L 950 8833 L 950 8985 L 1291 9510 C 1478 9799 1651 10074 1676 10123 C 1733 10235 1753 10321 1748 10425 C 1740 10580 1674 10645 1545 10626 C 1438 10609 1390 10519 1382 10318 L 1377 10190 L 1162 10190 L 947 10190 L 953 10328 C 963 10540 1004 10676 1096 10801 C 1190 10929 1352 10997 1572 10999 C 1625 11000 1703 10993 1746 10985 Z M 4699 7037 C 4744 7007 4779 6946 4780 6899 C 4780 6884 4767 6848 4750 6819 C 4602 6550 4553 6412 4530 6206 C 4503 5967 4572 5752 4737 5563 C 4911 5363 5009 5180 5051 4975 C 5069 4886 5067 4709 5046 4618 L 5029 4540 L 4818 4540 C 4622 4540 4608 4541 4615 4558 C 4642 4629 4660 4725 4660 4801 C 4660 4994 4587 5153 4396 5376 C 4191 5616 4110 5849 4123 6167 C 4132 6395 4178 6564 4296 6800 C 4409 7025 4462 7074 4591 7068 C 4643 7065 4666 7059 4699 7037 Z M 5928 7055 C 6041 7007 6071 6907 6004 6796 C 5805 6466 5741 6123 5830 5860 C 5867 5749 5901 5687 5969 5605 C 6157 5380 6256 5213 6302 5040 C 6321 4968 6325 4932 6324 4800 C 6323 4698 6318 4628 6308 4595 L 6294 4545 L 6083 4542 L 5871 4540 L 5890 4594 C 5978 4843 5908 5096 5680 5355 C 5375 5700 5305 6099 5465 6577 C 5505 6696 5624 6936 5672 6994 C 5689 7015 5722 7041 5744 7051 C 5794 7074 5878 7075 5928 7055 Z M 7229 7037 C 7274 7007 7309 6946 7310 6899 C 7310 6884 7297 6848 7280 6819 C 7132 6550 7083 6414 7060 6209 C 7040 6033 7077 5849 7160 5709 C 7182 5672 7237 5597 7284 5542 C 7394 5411 7443 5338 7496 5226 C 7594 5017 7620 4789 7568 4583 L 7558 4540 L 7348 4540 C 7152 4540 7138 4541 7145 4558 C 7192 4677 7202 4840 7170 4965 C 7137 5096 7070 5209 6932 5368 C 6810 5509 6731 5655 6684 5822 C 6649 5948 6640 6179 6664 6320 C 6703 6544 6810 6814 6926 6979 C 6991 7071 7136 7099 7229 7037 Z M 9062 4250 C 9097 4215 9097 4215 9054 4021 C 8927 3455 8609 2912 8165 2507 C 7838 2209 7450 1973 7050 1830 L 6945 1792 L 6940 1684 C 6935 1575 6924 1538 6894 1526 C 6886 1523 6415 1520 5849 1520 C 4833 1520 4820 1520 4800 1540 C 4783 1557 4780 1573 4780 1664 L 4780 1767 L 4658 1810 C 3631 2167 2856 2984 2615 3964 C 2559 4191 2558 4237 2608 4264 C 2632 4277 3024 4279 5833 4280 L 9032 4280 L 9062 4250 Z"></path>
</g>
</svg>
