<?xml version="1.0" standalone="no"?>
<!DOCTYPE svg PUBLIC "-//W3C//DTD SVG 20010904//EN"
 "http://www.w3.org/TR/2001/REC-SVG-20010904/DTD/svg10.dtd">
<svg version="1.0" xmlns="http://www.w3.org/2000/svg"
 width="1200.000000pt" height="1200.000000pt" viewBox="0 0 1200.000000 1200.000000"
 preserveAspectRatio="xMidYMid meet">
<g transform="translate(0.000000,1200.000000) scale(0.100000,-0.100000)"
fill="#fcc30b" stroke="none">
<path d="M 0 6000 L 0 0 L 6000 0 L 12000 0 L 12000 6000 L 12000 12000 L 6000 12000 L 0 12000 L 0 6000 Z M 2020 10822 L 2020 10674 L 1926 10284 C 1874 10070 1770 9641 1695 9330 C 1620 9019 1554 8746 1548 8723 L 1538 8680 L 1323 8680 C 1155 8680 1109 8683 1112 8693 C 1115 8699 1177 8948 1250 9245 C 1323 9542 1429 9974 1486 10204 C 1542 10435 1587 10627 1584 10632 C 1581 10636 1442 10640 1274 10640 L 970 10640 L 970 10805 L 970 10970 L 1495 10970 L 2020 10970 L 2020 10822 Z M 6061 6555 C 6077 6546 6100 6525 6110 6507 C 6129 6477 6130 6454 6130 6119 C 6130 5766 6130 5763 6107 5729 C 6094 5710 6068 5689 6046 5681 C 5994 5661 5935 5681 5903 5729 C 5880 5763 5880 5765 5880 6117 C 5880 6508 5881 6512 5943 6550 C 5982 6574 6021 6575 6061 6555 Z M 4845 6198 C 4856 6185 4941 6043 5034 5881 C 5202 5589 5202 5588 5197 5537 C 5191 5466 5151 5430 5080 5430 C 5040 5430 5025 5435 5001 5458 C 4963 5492 4640 6054 4633 6096 C 4630 6116 4635 6141 4649 6168 C 4661 6191 4671 6210 4673 6210 C 4674 6210 4692 6216 4714 6224 C 4762 6241 4817 6230 4845 6198 Z M 7300 6225 C 7345 6202 7370 6163 7370 6115 C 7370 6078 7346 6031 7196 5769 C 7073 5555 7013 5460 6993 5448 C 6978 5438 6945 5430 6921 5430 C 6839 5430 6779 5524 6813 5601 C 6822 5620 6902 5763 6992 5920 C 7133 6165 7160 6207 7190 6222 C 7233 6244 7262 6245 7300 6225 Z M 6265 5415 C 6556 5364 6827 5228 7037 5027 C 7242 4830 7370 4626 7448 4365 C 7489 4231 7499 4174 7508 4039 C 7527 3754 7481 3515 7360 3265 C 7157 2845 6784 2554 6310 2447 C 6229 2429 6183 2426 6005 2426 C 5826 2426 5781 2429 5698 2447 C 5327 2531 5019 2727 4800 3018 C 4413 3534 4392 4236 4749 4766 C 4894 4982 5102 5165 5334 5282 C 5475 5353 5683 5412 5870 5434 C 5939 5442 6177 5431 6265 5415 Z M 4173 5134 C 4342 5037 4487 4948 4495 4936 C 4550 4852 4490 4740 4390 4740 C 4340 4740 3746 5079 3725 5121 C 3705 5158 3706 5220 3726 5249 C 3749 5281 3800 5310 3835 5310 C 3855 5310 3963 5254 4173 5134 Z M 8241 5293 C 8298 5259 8315 5174 8277 5116 C 8263 5095 7710 4770 7650 4747 C 7583 4722 7490 4789 7490 4862 C 7490 4937 7501 4946 7828 5133 C 8157 5323 8177 5331 8241 5293 Z M 4190 4057 C 4257 4034 4289 3946 4256 3881 C 4224 3820 4226 3820 3825 3820 C 3502 3820 3456 3822 3434 3836 C 3355 3889 3366 4017 3454 4056 C 3496 4074 4137 4075 4190 4057 Z M 8550 4057 C 8617 4034 8649 3946 8615 3880 C 8583 3819 8591 3820 8187 3820 C 7783 3820 7786 3820 7754 3881 C 7721 3946 7753 4034 7820 4057 C 7844 4065 7955 4069 8185 4069 C 8415 4069 8526 4065 8550 4057 Z M 4451 3125 C 4488 3105 4520 3055 4520 3014 C 4520 2948 4492 2926 4175 2743 C 3883 2574 3874 2569 3827 2573 C 3762 2579 3720 2619 3713 2681 C 3705 2759 3722 2773 4048 2960 C 4209 3053 4346 3131 4353 3134 C 4378 3144 4422 3140 4451 3125 Z M 7960 2966 C 8287 2779 8300 2769 8300 2693 C 8300 2621 8221 2557 8154 2574 C 8115 2584 7548 2911 7524 2938 C 7455 3011 7513 3140 7614 3140 C 7649 3140 7701 3114 7960 2966 Z M 5159 2424 C 5195 2394 5216 2334 5204 2298 C 5199 2284 5119 2139 5025 1975 C 4860 1686 4854 1676 4811 1657 C 4774 1641 4761 1639 4729 1649 C 4675 1665 4640 1711 4640 1765 C 4640 1802 4663 1848 4813 2110 C 4940 2334 4993 2418 5015 2431 C 5059 2459 5122 2456 5159 2424 Z M 7009 2423 C 7040 2394 7365 1837 7376 1795 C 7385 1760 7363 1704 7329 1675 C 7284 1638 7209 1639 7171 1678 C 7157 1693 7069 1836 6977 1997 C 6827 2260 6810 2294 6810 2336 C 6810 2375 6815 2387 6844 2416 C 6874 2446 6884 2450 6929 2450 C 6970 2450 6985 2445 7009 2423 Z M 6055 2196 C 6074 2188 6099 2166 6110 2148 C 6129 2117 6130 2098 6130 1759 C 6130 1406 6130 1403 6107 1369 C 6094 1350 6068 1329 6046 1321 C 5994 1301 5935 1321 5903 1369 C 5880 1403 5880 1405 5880 1759 C 5880 2098 5881 2117 5900 2148 C 5920 2180 5967 2209 6003 2210 C 6013 2210 6036 2204 6055 2196 Z"></path><path d="M5971 4936 c-19 -6 -44 -24 -55 -39 -20 -27 -21 -42 -24 -303 -3
-240 -1 -278 14 -309 40 -85 158 -86 198 -1 13 29 16 74 16 295 0 269 -5 308
-42 339 -28 23 -72 30 -107 18z"></path><path d="M5665 4645 c-207 -104 -353 -279 -417 -501 -32 -113 -32 -295 0 -408
80 -278 293 -487 567 -556 109 -28 271 -28 380 0 272 68 489 281 566 556 32
112 32 296 0 408 -46 164 -149 318 -277 414 -70 53 -200 122 -228 122 -14 0
-16 -20 -15 -142 l0 -143 60 -39 c168 -108 252 -329 204 -535 -68 -288 -368
-460 -650 -373 -405 123 -494 662 -150 907 l65 47 0 139 c0 163 4 158 -105
104z"></path>
</g>
</svg>
