<?xml version="1.0" standalone="no"?>
<!DOCTYPE svg PUBLIC "-//W3C//DTD SVG 20010904//EN"
 "http://www.w3.org/TR/2001/REC-SVG-20010904/DTD/svg10.dtd">
<svg version="1.0" xmlns="http://www.w3.org/2000/svg"
 width="1200.000000pt" height="1200.000000pt" viewBox="0 0 1200.000000 1200.000000"
 preserveAspectRatio="xMidYMid meet">
<g transform="translate(0.000000,1200.000000) scale(0.100000,-0.100000)"
fill="#3f7e44" stroke="none">
<path d="M 0 6000 L 0 0 L 6000 0 L 12000 0 L 12000 6000 L 12000 12000 L 6000 12000 L 0 12000 L 0 6000 Z M 2475 10985 C 2618 10954 2750 10868 2820 10760 C 2838 10732 2864 10675 2878 10632 C 2902 10562 2904 10540 2905 10395 C 2905 10224 2898 10186 2843 10076 C 2811 10013 2727 9929 2672 9905 L 2629 9886 L 2667 9867 C 2766 9817 2832 9736 2878 9608 C 2903 9539 2904 9525 2904 9340 C 2904 9173 2901 9134 2883 9069 C 2819 8841 2680 8697 2483 8655 C 2395 8636 2194 8636 2106 8655 C 1949 8688 1838 8771 1767 8907 C 1713 9011 1690 9110 1683 9273 L 1677 9410 L 1896 9408 L 2115 9405 L 2121 9290 C 2134 9077 2176 9010 2300 9010 C 2372 9010 2415 9033 2440 9084 C 2485 9177 2490 9413 2450 9542 C 2417 9650 2342 9700 2215 9700 C 2167 9700 2151 9704 2146 9716 C 2143 9725 2140 9792 2140 9865 C 2140 9938 2143 10005 2146 10014 C 2151 10027 2168 10030 2229 10030 C 2393 10031 2459 10105 2476 10309 C 2483 10397 2467 10520 2441 10569 C 2414 10622 2379 10643 2311 10648 C 2174 10658 2120 10572 2120 10345 L 2120 10250 L 1900 10250 L 1680 10250 L 1680 10359 C 1680 10505 1700 10606 1750 10706 C 1821 10851 1949 10950 2110 10984 C 2197 11003 2387 11003 2475 10985 Z M 1455 10948 C 1458 10935 1459 10421 1458 9805 L 1455 8685 L 1233 8682 L 1010 8680 L 1010 9595 C 1010 10098 1008 10510 1005 10510 C 1003 10510 977 10501 948 10489 C 869 10458 702 10400 690 10400 C 684 10400 680 10455 680 10558 L 680 10716 L 833 10792 C 920 10836 1011 10890 1045 10919 L 1105 10968 L 1277 10969 C 1448 10970 1450 10970 1455 10948 Z M 6375 6700 C 7157 6659 7847 6481 8525 6145 C 8950 5935 9328 5685 9685 5380 C 9847 5241 10182 4904 10310 4750 C 10418 4621 10560 4433 10560 4419 C 10560 4408 10406 4206 10313 4095 C 9736 3412 8961 2854 8132 2526 C 7144 2134 6013 2040 4942 2261 C 4063 2442 3258 2835 2535 3436 C 2368 3574 1993 3949 1860 4109 C 1735 4261 1620 4415 1620 4433 C 1620 4448 1734 4600 1854 4747 C 1972 4890 2374 5290 2525 5416 C 2949 5768 3419 6059 3900 6268 C 4649 6592 5522 6745 6375 6700 Z"></path><path d="M5850 6265 c-215 -30 -384 -82 -586 -181 -136 -66 -187 -102 -129
-91 71 14 326 29 389 23 71 -7 147 -33 162 -57 5 -8 9 -44 9 -81 0 -60 3 -70
30 -98 17 -18 51 -47 78 -67 74 -55 68 -67 -73 -150 -172 -102 -242 -126 -257
-87 -10 28 9 46 108 99 100 55 118 78 74 95 -42 16 -91 12 -225 -19 -69 -16
-183 -34 -255 -40 -123 -10 -134 -13 -215 -53 -67 -34 -89 -51 -104 -79 -19
-35 -19 -38 -2 -64 33 -51 232 -124 298 -110 20 5 56 32 96 71 36 36 76 67 89
70 28 7 83 -13 83 -30 0 -7 -29 -36 -65 -64 -36 -29 -65 -57 -65 -62 0 -16
-85 -60 -116 -60 -16 0 -55 9 -87 20 -110 39 -228 23 -337 -44 -41 -25 -79
-46 -85 -46 -7 0 -19 -8 -29 -18 -13 -16 -14 -24 -5 -51 10 -29 9 -35 -17 -62
-28 -30 -86 -41 -99 -19 -12 19 -137 12 -172 -10 -49 -29 -56 -96 -17 -157 18
-28 43 -29 92 -4 20 10 73 26 117 36 89 19 162 49 214 89 68 51 105 28 180
-113 63 -117 107 -137 70 -31 -24 69 -24 90 0 90 12 0 35 -21 58 -50 32 -43
42 -49 63 -44 14 3 44 8 67 11 38 5 43 3 57 -26 9 -16 16 -39 16 -50 0 -32
-55 -86 -112 -111 -49 -21 -58 -22 -118 -11 -36 7 -127 37 -204 68 -76 30
-190 66 -253 80 -113 25 -116 26 -169 9 -39 -12 -58 -25 -68 -44 -8 -15 -35
-54 -61 -87 l-47 -60 5 -210 c3 -164 9 -234 26 -320 21 -101 91 -335 109 -361
4 -6 24 -17 45 -23 36 -12 41 -11 131 38 52 28 104 51 115 51 24 0 129 -81
148 -114 7 -12 12 -33 13 -47 0 -39 20 -51 58 -37 44 17 60 -1 73 -81 13 -83
34 -132 59 -138 11 -3 20 -8 20 -12 4 -70 22 -220 30 -250 5 -21 20 -51 32
-66 20 -26 25 -27 79 -22 31 3 84 17 118 32 99 45 155 122 202 275 16 55 31
84 57 108 49 47 92 192 92 312 0 78 3 90 28 131 16 24 54 67 85 96 55 51 74
91 65 140 -1 10 -32 37 -68 59 -104 66 -157 120 -196 198 -38 78 -55 168 -34
181 9 6 51 -31 134 -118 73 -76 131 -128 147 -132 59 -14 182 46 219 107 40
66 34 77 -129 240 -148 147 -173 180 -153 200 16 16 54 2 108 -39 27 -21 87
-58 133 -83 94 -50 118 -76 132 -141 21 -93 70 -133 229 -184 118 -38 175 -69
235 -126 29 -27 61 -49 73 -49 25 0 62 46 92 115 17 40 21 62 16 107 -3 32 -3
64 0 73 9 23 58 45 98 45 62 0 88 -36 156 -211 33 -87 74 -175 90 -198 31 -43
167 -155 224 -186 36 -19 63 -15 73 11 3 9 -18 63 -52 130 l-58 114 17 67 c27
111 52 137 156 163 58 15 159 76 171 104 8 17 4 34 -20 80 -30 56 -39 113 -25
150 11 29 46 17 101 -35 53 -50 55 -51 105 -47 103 10 134 90 91 238 -184 642
-711 1146 -1358 1299 -206 49 -474 63 -675 36z"></path><path d="M4772 5760 c-41 -10 -61 -27 -123 -111 -53 -72 -59 -93 -30 -109 33
-17 73 -11 137 19 73 34 101 67 110 128 6 41 4 49 -16 65 -24 19 -28 20 -78 8z"></path><path d="M4625 5450 c-101 -21 -115 -35 -195 -192 -65 -127 -71 -148 -40 -148
35 0 72 26 145 100 39 40 107 97 153 126 45 30 82 61 82 69 0 34 -78 59 -145
45z"></path><path d="M7790 4645 c0 -3 9 -23 20 -45 26 -50 25 -62 -4 -104 -57 -84 -55
-196 4 -321 31 -65 94 -144 105 -133 15 14 36 201 38 338 2 165 -9 206 -72
247 -30 20 -91 32 -91 18z"></path><path d="M6437 4226 c-37 -35 -33 -66 13 -88 44 -23 123 -24 144 -2 32 31 -28
99 -97 111 -25 4 -38 -1 -60 -21z"></path><path d="M7456 4045 c-15 -14 -26 -33 -24 -42 5 -27 51 -53 103 -59 41 -5 55
-3 75 14 23 19 24 20 6 46 -22 34 -74 66 -107 66 -14 0 -38 -11 -53 -25z"></path><path d="M7690 3904 c-87 -57 -156 -84 -290 -114 -180 -41 -283 -76 -332 -113
-59 -45 -121 -140 -137 -210 -13 -60 -11 -83 20 -182 10 -33 25 -86 34 -117
21 -77 36 -80 130 -28 61 34 76 39 81 26 3 -8 3 -19 0 -25 -20 -31 30 -55 54
-26 17 20 49 19 109 -5 l50 -19 76 87 c147 168 329 472 342 572 8 60 -37 176
-72 186 -5 2 -35 -13 -65 -32z"></path><path d="M5803 3914 c-70 -35 -109 -147 -120 -351 -5 -90 -4 -103 11 -109 25
-10 40 16 91 167 25 74 57 157 70 184 30 59 32 100 6 115 -24 12 -20 13 -58
-6z"></path><path d="M6920 2947 c-61 -25 -116 -62 -200 -132 -67 -56 -59 -56 -288 21
-211 71 -305 93 -423 101 -155 10 -299 -32 -389 -113 -72 -65 -101 -152 -62
-186 37 -33 273 -77 462 -85 380 -16 779 95 1099 307 76 51 91 64 80 75 -45
41 -192 48 -279 12z"></path>
</g>
</svg>
