<?xml version="1.0" standalone="no"?>
<!DOCTYPE svg PUBLIC "-//W3C//DTD SVG 20010904//EN"
 "http://www.w3.org/TR/2001/REC-SVG-20010904/DTD/svg10.dtd">
<svg version="1.0" xmlns="http://www.w3.org/2000/svg"
 width="1200.000000pt" height="1200.000000pt" viewBox="0 0 1200.000000 1200.000000"
 preserveAspectRatio="xMidYMid meet">
<g transform="translate(0.000000,1200.000000) scale(0.100000,-0.100000)"
fill="#dd1367" stroke="none">
<path d="M 0 6000 L 0 0 L 6000 0 L 12000 0 L 12000 6000 L 12000 12000 L 6000 12000 L 0 12000 L 0 6000 Z M 2511 10971 C 2685 10915 2802 10783 2862 10574 C 2885 10495 2885 10493 2885 9820 L 2885 9145 L 2862 9065 C 2829 8951 2785 8875 2708 8797 C 2659 8747 2622 8721 2568 8696 C 2471 8651 2412 8640 2276 8640 C 2075 8640 1936 8692 1830 8807 C 1761 8883 1708 8985 1683 9095 C 1667 9168 1665 9230 1665 9820 C 1665 10414 1666 10471 1684 10545 C 1739 10783 1867 10922 2084 10981 C 2184 11008 2414 11003 2511 10971 Z M 1440 9825 L 1440 8680 L 1220 8680 L 1000 8680 L 1000 9596 C 1000 10464 999 10512 983 10507 C 973 10504 903 10479 826 10451 C 750 10423 682 10400 674 10400 C 663 10400 660 10430 660 10558 L 661 10715 L 798 10783 C 873 10820 971 10877 1015 10909 L 1095 10968 L 1268 10969 L 1440 10970 L 1440 9825 Z M 6559 7076 C 6947 6688 7091 6538 7087 6526 C 7081 6511 6982 6510 6010 6510 C 5038 6510 4939 6511 4933 6526 C 4929 6538 5073 6688 5461 7076 C 5755 7370 6002 7610 6010 7610 C 6018 7610 6265 7370 6559 7076 Z M 3964 5534 C 3967 5525 3970 5042 3970 4459 C 3970 3497 3969 3399 3954 3393 C 3942 3389 3792 3533 3404 3921 C 3110 4215 2870 4462 2870 4470 C 2870 4487 3929 5550 3946 5550 C 3953 5550 3961 5543 3964 5534 Z M 8617 5018 C 8910 4725 9150 4478 9150 4470 C 9150 4462 8910 4215 8616 3921 C 8228 3533 8078 3389 8066 3393 C 8051 3399 8050 3497 8050 4468 C 8050 5056 8053 5540 8057 5543 C 8060 5547 8068 5550 8074 5550 C 8080 5550 8325 5310 8617 5018 Z M 7135 5180 L 7135 4825 L 6008 4822 L 4880 4820 L 4880 5173 C 4880 5368 4883 5530 4887 5533 C 4890 5537 5398 5539 6014 5538 L 7135 5535 L 7135 5180 Z M 7135 3760 L 7135 3405 L 6008 3402 L 4880 3400 L 4880 3760 L 4880 4120 L 6008 4118 L 7135 4115 L 7135 3760 Z M 7087 2414 C 7091 2402 6947 2252 6559 1864 C 6265 1570 6018 1330 6010 1330 C 6002 1330 5755 1570 5461 1864 C 5073 2252 4929 2402 4933 2414 C 4939 2429 5038 2430 6010 2430 C 6982 2430 7081 2429 7087 2414 Z"></path><path d="M2223 10609 c-39 -12 -79 -57 -95 -112 -10 -32 -13 -192 -13 -682 l0
-640 30 -60 c26 -52 36 -63 76 -79 91 -37 172 8 203 114 24 79 24 1245 0 1335
-17 69 -52 111 -103 125 -42 12 -55 11 -98 -1z"></path>
</g>
</svg>
