<?xml version="1.0" standalone="no"?>
<!DOCTYPE svg PUBLIC "-//W3C//DTD SVG 20010904//EN"
 "http://www.w3.org/TR/2001/REC-SVG-20010904/DTD/svg10.dtd">
<svg version="1.0" xmlns="http://www.w3.org/2000/svg"
 width="1200.000000pt" height="1200.000000pt" viewBox="0 0 1200.000000 1200.000000"
 preserveAspectRatio="xMidYMid meet">
<g transform="translate(0.000000,1200.000000) scale(0.100000,-0.100000)"
fill="#fd9d24" stroke="none">
<path d="M 0 5986.175 L 0 -13.825 L 6000 -13.825 L 12000 -13.825 L 12000 5986.175 L 12000 11986.175 L 6000 11986.175 L 0 11986.175 L 0 5986.175 Z M 1460 9811.175 L 1460 8666.175 L 1240 8666.175 L 1020 8666.175 L 1020 9582.175 C 1020 10451.175 1019 10498.175 1003 10491.175 C 943 10467.175 713 10386.175 703 10386.175 C 693 10386.175 690 10424.175 690 10544.175 L 690 10702.175 L 843 10778.175 C 930 10822.175 1021 10876.175 1055 10905.175 L 1115 10954.175 L 1288 10955.175 L 1460 10956.175 L 1460 9811.175 Z M 2420 9811.175 L 2420 8666.175 L 2200 8666.175 L 1980 8666.175 L 1980 9582.175 C 1980 10451.175 1979 10498.175 1963 10491.175 C 1903 10467.175 1673 10386.175 1662 10386.175 C 1652 10386.175 1650 10422.175 1652 10547.175 L 1655 10707.175 L 1725 10739.175 C 1846 10794.175 1960 10859.175 2019 10908.175 L 2075 10954.175 L 2248 10955.175 L 2420 10956.175 L 2420 9811.175 Z M 6004 6400.175 C 6007 6391.175 6010 5208.175 6010 3771.175 C 6010 1197.175 6010 1157.175 5991 1146.175 C 5978 1139.175 5715 1136.175 5206 1136.175 C 4524 1136.175 4440 1138.175 4426 1152.175 C 4412 1166.175 4410 1418.175 4410 3780.175 C 4410 5798.175 4413 6395.175 4422 6404.175 C 4431 6413.175 4621 6416.175 5216 6416.175 C 5920 6416.175 5998 6414.175 6004 6400.175 Z M 7807 5436.175 C 7826 5399.175 7821 1163.175 7802 1144.175 C 7792 1134.175 7637 1130.175 7031 1128.175 C 6546 1127.175 6263 1129.175 6246 1136.175 L 6220 1146.175 L 6220 2333.175 L 6220 3521.175 L 6291 3611.175 C 6330 3661.175 6675 4098.175 7058 4584.175 C 7793 5516.175 7776 5497.175 7807 5436.175 Z M 3799 3163.175 C 4020 2878.175 4200 2641.175 4200 2636.175 C 4200 2594.175 4234 2596.175 3380 2596.175 C 2653 2596.175 2571 2598.175 2559 2612.175 C 2548 2625.175 2548 2632.175 2560 2652.175 C 2568 2665.175 2717 2861.175 2890 3088.175 C 3063 3315.175 3236 3543.175 3275 3593.175 C 3335 3673.175 3349 3686.175 3372 3683.175 C 3394 3681.175 3461 3600.175 3799 3163.175 Z M 9615 3086.175 L 9615 2901.175 L 8815 2898.175 C 8072 2896.175 8014 2897.175 8003 2913.175 C 7987 2934.175 7985 3228.175 8000 3257.175 C 8011 3276.175 8028 3276.175 8813 3274.175 L 9615 3271.175 L 9615 3086.175 Z M 9614 2760.175 C 9628 2746.175 9630 2659.175 9630 1955.175 C 9630 1429.175 9627 1158.175 9620 1145.175 C 9610 1126.175 9590 1126.175 8810 1126.175 C 8030 1126.175 8010 1126.175 8000 1145.175 C 7993 1158.175 7990 1429.175 7990 1955.175 C 7990 2659.175 7992 2746.175 8006 2760.175 C 8020 2774.175 8106 2776.175 8810 2776.175 C 9514 2776.175 9600 2774.175 9614 2760.175 Z M 4180 2436.175 C 4200 2416.175 4200 2403.175 4200 1800.175 C 4200 1395.175 4196 1178.175 4190 1165.175 C 4180 1147.175 4166 1146.175 3910 1146.175 L 3640 1146.175 L 3640 1535.175 C 3640 1876.175 3638 1927.175 3624 1940.175 C 3611 1954.175 3573 1956.175 3361 1956.175 C 3182 1956.175 3111 1953.175 3102 1944.175 C 3093 1935.175 3090 1831.175 3090 1539.175 L 3090 1146.175 L 2825 1146.175 C 2574 1146.175 2560 1147.175 2550 1165.175 C 2544 1178.175 2540 1396.175 2540 1805.175 L 2540 2425.175 L 2562 2440.175 C 2582 2454.175 2675 2456.175 3372 2456.175 C 4147 2456.175 4160 2456.175 4180 2436.175 Z"></path><path d="M4680 5510 l0 -210 190 0 190 0 0 210 0 210 -190 0 -190 0 0 -210z"></path><path d="M5365 5707 c-3 -7 -4 -100 -3 -207 l3 -195 190 0 190 0 0 205 0 205
-188 3 c-147 2 -189 0 -192 -11z"></path><path d="M4680 4620 l0 -210 190 0 190 0 0 210 0 210 -190 0 -190 0 0 -210z"></path><path d="M5365 4817 c-3 -7 -4 -100 -3 -207 l3 -195 190 0 190 0 0 205 0 205
-188 3 c-147 2 -189 0 -192 -11z"></path><path d="M4684 3927 c-2 -7 -3 -102 -2 -212 l3 -200 185 0 185 0 3 213 2 212
-185 0 c-141 0 -187 -3 -191 -13z"></path><path d="M5367 3934 c-4 -4 -7 -98 -7 -210 0 -175 2 -203 16 -208 23 -9 347
-7 362 2 9 7 12 56 10 213 l-3 204 -186 3 c-102 1 -188 -1 -192 -4z"></path><path d="M4685 3037 c-3 -7 -4 -102 -3 -212 l3 -200 185 0 185 0 0 210 0 210
-183 3 c-142 2 -184 0 -187 -11z"></path><path d="M5365 3037 c-3 -7 -4 -102 -3 -212 l3 -200 190 0 190 0 0 210 0 210
-188 3 c-147 2 -189 0 -192 -11z"></path><path d="M4692 2152 c-9 -7 -12 -56 -10 -213 l3 -204 188 -3 187 -2 -2 212 -3
213 -175 2 c-96 2 -181 -1 -188 -5z"></path><path d="M5371 2146 c-8 -9 -11 -74 -9 -212 l3 -199 190 0 190 0 3 199 c2 138
-1 203 -9 212 -9 11 -50 14 -184 14 -134 0 -175 -3 -184 -14z"></path><path d="M7553 4878 c-44 -47 -358 -439 -371 -464 -9 -16 -8 -26 4 -42 15 -21
22 -22 219 -22 199 0 204 0 219 22 13 19 16 61 16 260 0 225 -1 239 -20 258
-26 26 -31 26 -67 -12z"></path><path d="M7122 4168 c-8 -8 -12 -60 -12 -170 0 -145 1 -158 19 -168 12 -6 110
-10 249 -10 209 0 230 2 245 18 14 16 17 43 17 161 0 79 -5 151 -10 162 -10
18 -24 19 -253 19 -176 0 -246 -3 -255 -12z"></path><path d="M6682 3763 c-274 -341 -262 -324 -262 -394 0 -52 2 -59 23 -64 12 -3
128 -4 257 -3 l235 3 3 344 c2 360 2 360 -40 361 -10 0 -96 -98 -216 -247z"></path><path d="M7128 3649 c-16 -9 -18 -28 -18 -167 0 -110 4 -162 12 -170 9 -9 79
-12 255 -12 229 0 243 1 253 19 5 11 10 84 10 164 0 127 -2 146 -18 160 -16
15 -48 17 -248 17 -137 0 -236 -5 -246 -11z"></path><path d="M6427 3123 c-11 -11 -8 -331 3 -338 5 -3 118 -6 250 -6 132 0 245 3
250 6 6 4 10 72 10 170 0 139 -2 164 -16 169 -21 8 -489 8 -497 -1z"></path><path d="M7122 3118 c-14 -14 -17 -305 -3 -326 11 -18 485 -19 507 -1 11 9 14
43 14 156 0 80 -5 153 -10 164 -10 18 -24 19 -253 19 -176 0 -246 -3 -255 -12z"></path><path d="M6432 2598 c-8 -8 -12 -60 -12 -168 0 -108 4 -160 12 -168 17 -17
479 -17 496 0 8 8 12 60 12 170 0 145 -1 158 -19 168 -29 15 -473 14 -489 -2z"></path><path d="M7128 2599 c-16 -9 -18 -28 -18 -167 0 -110 4 -162 12 -170 9 -9 79
-12 255 -12 229 0 243 1 253 19 5 11 10 84 10 165 0 118 -3 147 -16 160 -13
14 -50 16 -247 16 -139 0 -239 -5 -249 -11z"></path><path d="M6427 2073 c-4 -3 -7 -80 -7 -169 0 -151 1 -164 19 -174 12 -6 108
-10 241 -10 133 0 229 4 241 10 18 10 19 23 19 174 0 140 -2 165 -16 170 -21
8 -489 8 -497 -1z"></path><path d="M7122 2068 c-8 -8 -12 -60 -12 -170 l0 -158 26 -10 c14 -6 123 -10
242 -10 181 0 221 3 240 16 21 14 22 22 22 160 0 81 -5 154 -10 165 -10 18
-24 19 -253 19 -176 0 -246 -3 -255 -12z"></path><path d="M8204 2587 c-2 -7 -3 -85 -2 -172 l3 -160 255 -3 c231 -2 256 -1 268
15 15 21 17 285 2 314 -10 18 -24 19 -266 19 -199 0 -256 -3 -260 -13z"></path><path d="M8914 2587 c-2 -7 -3 -85 -2 -172 l3 -160 255 -3 c231 -2 256 -1 268
15 15 21 17 285 2 314 -10 18 -24 19 -266 19 -199 0 -256 -3 -260 -13z"></path><path d="M8213 2073 c-10 -3 -13 -47 -13 -168 0 -152 1 -165 19 -175 12 -6
110 -10 250 -10 293 0 271 -15 271 184 0 118 -3 147 -16 160 -13 14 -50 16
-257 15 -133 0 -248 -3 -254 -6z"></path><path d="M8922 2068 c-8 -8 -12 -60 -12 -170 0 -145 1 -158 19 -168 12 -6 110
-10 250 -10 292 0 271 -14 271 181 0 77 -5 149 -10 160 -10 18 -24 19 -258 19
-180 0 -251 -3 -260 -12z"></path>
</g>
</svg>
