<?xml version="1.0" standalone="no"?>
<!DOCTYPE svg PUBLIC "-//W3C//DTD SVG 20010904//EN"
 "http://www.w3.org/TR/2001/REC-SVG-20010904/DTD/svg10.dtd">
<svg version="1.0" xmlns="http://www.w3.org/2000/svg"
 width="1200.000000pt" height="1200.000000pt" viewBox="0 0 1200.000000 1200.000000"
 preserveAspectRatio="xMidYMid meet">
<g transform="translate(0.000000,1200.000000) scale(0.100000,-0.100000)"
fill="#a21942" stroke="none">
<path d="M 0 6000 L 0 0 L 6000 0 L 12000 0 L 12000 6000 L 12000 12000 L 6000 12000 L 0 12000 L 0 6000 Z M 1694 10985 C 1905 10945 2045 10809 2096 10594 C 2107 10548 2112 10483 2112 10400 C 2111 10193 2062 10053 1949 9938 L 1892 9880 L 1925 9860 C 2020 9801 2106 9662 2134 9518 C 2155 9415 2155 9203 2134 9102 C 2093 8902 1995 8767 1839 8696 C 1674 8620 1390 8625 1220 8707 C 1143 8744 1041 8849 1002 8930 C 901 9143 897 9487 994 9677 C 1029 9748 1091 9821 1138 9850 C 1161 9864 1180 9879 1180 9883 C 1180 9887 1164 9905 1144 9922 C 1124 9939 1090 9980 1068 10013 C 984 10137 954 10258 962 10446 C 974 10693 1064 10851 1245 10941 C 1357 10996 1542 11015 1694 10985 Z M 8380 6556 C 8389 6544 8374 6458 8305 6138 C 8258 5916 8215 5725 8210 5713 C 8205 5700 8195 5690 8188 5690 C 8180 5690 8132 5733 8080 5785 C 8028 5837 7981 5880 7975 5880 C 7970 5880 7508 5423 6950 4865 C 6392 4307 5931 3850 5925 3850 C 5920 3850 5727 4038 5498 4267 L 5080 4685 L 4422 4027 C 4061 3666 3758 3370 3749 3370 C 3733 3370 3500 3600 3500 3616 C 3500 3631 5064 5190 5080 5190 C 5088 5190 5282 5003 5510 4775 L 5925 4360 L 6820 5255 L 7715 6150 L 7616 6249 C 7550 6315 7519 6353 7522 6366 C 7524 6381 7589 6398 7930 6476 C 8153 6526 8342 6568 8351 6569 C 8360 6570 8373 6563 8380 6556 Z M 8000 5361 C 8007 5348 8010 4717 8010 3393 C 8010 1725 8008 1441 7996 1424 C 7982 1406 7964 1405 7422 1405 C 6963 1405 6860 1407 6847 1419 C 6831 1431 6830 1544 6830 2860 L 6830 4287 L 6853 4321 C 6876 4356 7827 5270 7913 5340 C 7968 5385 7985 5389 8000 5361 Z M 5022 4083 C 5039 4068 5040 4013 5040 2755 L 5040 1443 L 5019 1424 C 4999 1406 4975 1405 4443 1405 L 3888 1405 L 3869 1429 C 3850 1452 3850 1474 3852 2229 C 3855 2871 3857 3010 3869 3032 C 3877 3047 4090 3257 4343 3497 C 4950 4075 4978 4100 4992 4100 C 4998 4100 5012 4093 5022 4083 Z M 6530 3911 C 6537 3898 6540 3493 6540 2672 C 6540 1486 6539 1452 6521 1429 L 6502 1405 L 5947 1405 C 5415 1405 5391 1406 5371 1424 L 5350 1443 L 5350 2647 C 5350 3458 5353 3858 5360 3871 C 5384 3915 5410 3896 5665 3640 C 5802 3503 5919 3390 5925 3390 C 5930 3390 6056 3512 6205 3660 C 6481 3935 6506 3955 6530 3911 Z"></path><path d="M1485 10660 c-32 -13 -73 -62 -89 -106 -36 -104 -27 -311 19 -411 55
-122 183 -126 240 -8 61 125 59 388 -3 475 -35 49 -114 72 -167 50z"></path><path d="M1475 9676 c-83 -36 -119 -144 -119 -351 1 -249 55 -355 184 -355 75
0 127 42 154 124 36 108 37 355 2 471 -31 102 -129 151 -221 111z"></path>
</g>
</svg>
