<?xml version="1.0" standalone="no"?>
<!DOCTYPE svg PUBLIC "-//W3C//DTD SVG 20010904//EN"
 "http://www.w3.org/TR/2001/REC-SVG-20010904/DTD/svg10.dtd">
<svg version="1.0" xmlns="http://www.w3.org/2000/svg"
 width="1200.000000pt" height="1200.000000pt" viewBox="0 0 1200.000000 1200.000000"
 preserveAspectRatio="xMidYMid meet">
<g transform="translate(0.000000,1200.000000) scale(0.100000,-0.100000)"
fill="#001b8c" stroke="none">
<path d="M 0 6000 L 0 0 L 6000 0 L 12000 0 L 12000 6000 L 12000 12000 L 6000 12000 L 0 12000 L 0 6000 Z M 1470 9825 L 1470 8680 L 1250 8680 L 1030 8680 L 1030 9595 C 1030 10098 1028 10510 1026 10510 C 1024 10510 955 10485 872 10455 C 789 10425 716 10400 710 10400 C 704 10400 700 10456 700 10558 L 700 10717 L 815 10773 C 937 10833 1075 10917 1105 10950 C 1122 10969 1136 10970 1297 10970 L 1470 10970 L 1470 9825 Z M 2780 10823 L 2780 10676 L 2559 9761 C 2438 9257 2329 8808 2318 8763 L 2298 8680 L 2085 8680 L 1873 8680 L 1921 8878 C 1947 8986 2055 9423 2159 9849 C 2264 10275 2350 10627 2350 10632 C 2350 10636 2211 10640 2040 10640 L 1730 10640 L 1730 10805 L 1730 10970 L 2255 10970 L 2780 10970 L 2780 10823 Z M 6361 6266 C 6616 6207 6837 6079 7020 5884 C 7129 5768 7210 5640 7279 5478 C 7299 5431 7300 5430 7343 5430 C 7412 5430 7556 5402 7652 5370 C 7848 5304 8008 5204 8161 5051 C 8417 4795 8540 4497 8540 4134 C 8540 3772 8406 3461 8137 3198 L 8048 3112 L 8065 3035 C 8118 2799 8090 2494 7995 2269 C 7790 1782 7323 1470 6801 1470 C 6581 1470 6417 1509 6213 1611 L 6072 1681 L 6033 1657 C 5914 1582 5751 1517 5598 1483 C 5482 1458 5208 1458 5092 1483 C 4574 1596 4188 1980 4074 2495 C 4040 2649 4045 2910 4085 3061 L 4099 3112 L 4002 3205 C 3794 3405 3667 3641 3619 3918 C 3564 4245 3632 4572 3813 4847 C 4028 5175 4385 5393 4764 5428 C 4818 5433 4845 5440 4851 5450 C 4855 5458 4877 5505 4900 5554 C 4922 5603 4966 5682 4997 5729 C 5066 5832 5217 5987 5320 6059 C 5470 6165 5681 6253 5845 6279 C 5884 6285 5926 6292 5940 6294 C 5954 6297 6030 6297 6110 6295 C 6218 6292 6282 6285 6361 6266 Z"></path><path d="M5936 6030 c-216 -34 -410 -126 -568 -269 -69 -62 -168 -192 -209
-272 -34 -68 -35 -79 -10 -79 41 0 201 -54 297 -99 146 -70 245 -140 365 -260
100 -100 190 -220 235 -313 10 -21 21 -38 24 -38 4 0 12 12 19 28 28 62 146
226 217 302 166 176 393 309 619 364 39 9 76 19 83 22 10 3 4 22 -23 72 -142
259 -382 447 -662 518 -107 27 -293 38 -387 24z"></path><path d="M4740 5163 c-143 -25 -312 -93 -428 -172 -201 -136 -354 -355 -419
-597 -23 -87 -26 -118 -26 -254 0 -135 3 -168 26 -252 30 -112 86 -239 146
-326 47 -69 150 -184 161 -180 4 2 36 46 71 98 126 189 340 370 546 460 103
45 234 85 316 95 31 4 57 9 57 11 0 2 -23 27 -51 56 -241 250 -363 558 -362
916 0 83 -3 151 -6 151 -3 -1 -17 -4 -31 -6z"></path><path d="M7365 5007 c0 -178 -14 -265 -65 -419 -55 -163 -156 -333 -280 -470
-49 -54 -57 -68 -42 -68 46 0 257 -61 343 -99 243 -108 455 -299 604 -545 l17
-28 55 53 c111 109 206 280 255 459 31 115 33 365 4 480 -105 422 -425 716
-861 793 l-30 6 0 -162z"></path><path d="M5044 5124 c-4 -20 -4 -98 -1 -173 6 -147 29 -250 86 -376 111 -245
332 -448 591 -544 69 -26 190 -54 198 -46 3 3 8 61 10 128 15 481 -308 907
-780 1027 -42 11 -81 20 -87 20 -5 0 -13 -16 -17 -36z"></path><path d="M7025 5149 c-385 -90 -681 -376 -782 -758 -22 -82 -26 -119 -27 -248
-1 -83 2 -155 6 -158 11 -11 170 31 251 66 283 120 507 371 591 662 33 114 50
271 39 367 -9 83 -11 84 -78 69z"></path><path d="M6623 3786 c-107 -21 -284 -83 -297 -105 -3 -4 11 -35 30 -67 243
-404 718 -597 1163 -473 80 21 201 73 201 85 0 4 -18 37 -39 73 -133 224 -371
401 -626 467 -124 32 -321 41 -432 20z"></path><path d="M5159 3775 c-300 -57 -550 -237 -718 -517 l-22 -37 38 -19 c50 -25
184 -68 253 -81 219 -40 430 -11 635 88 123 61 206 123 310 233 63 67 165 210
165 232 0 9 -156 68 -228 88 -102 26 -326 33 -433 13z"></path><path d="M6019 3447 c-180 -211 -274 -489 -255 -750 16 -205 104 -430 231
-582 37 -44 72 -81 79 -83 27 -6 156 173 212 293 82 177 113 414 80 603 -20
112 -67 242 -124 343 -48 84 -156 219 -175 219 -6 -1 -28 -20 -48 -43z"></path><path d="M5419 2953 c-195 -88 -427 -126 -637 -105 -135 13 -275 47 -377 91
l-70 30 -9 -27 c-5 -15 -9 -97 -9 -182 -1 -132 2 -168 22 -244 101 -387 375
-661 768 -768 114 -31 354 -31 470 0 92 24 199 64 250 95 l34 19 -26 32 c-168
204 -256 375 -306 596 -25 111 -35 311 -20 419 6 46 10 85 9 86 -2 1 -46 -18
-99 -42z"></path><path d="M6625 2977 c14 -45 18 -315 6 -396 -35 -240 -129 -455 -278 -638 -71
-88 -74 -81 43 -131 141 -59 232 -77 404 -76 125 0 171 4 237 22 322 84 559
280 698 576 71 151 90 242 90 436 0 91 -3 172 -7 181 -6 15 -17 13 -92 -18
-318 -127 -687 -120 -1007 21 -94 42 -101 43 -94 23z"></path>
</g>
</svg>
