<?xml version="1.0" standalone="no"?>
<!DOCTYPE svg PUBLIC "-//W3C//DTD SVG 20010904//EN"
 "http://www.w3.org/TR/2001/REC-SVG-20010904/DTD/svg10.dtd">
<svg version="1.0" xmlns="http://www.w3.org/2000/svg"
 width="1200.000000pt" height="1200.000000pt" viewBox="0 0 1200.000000 1200.000000"
 preserveAspectRatio="xMidYMid meet">
<g transform="translate(0.000000,1200.000000) scale(0.100000,-0.100000)"
fill="#4c9f38" stroke="none">
<path d="M 0 6000 L 0 0 L 6000 0 L 12000 0 L 12000 6000 L 12000 12000 L 6000 12000 L 0 12000 L 0 6000 Z M 1732 10985 C 1945 10941 2090 10803 2147 10590 C 2172 10497 2171 10277 2146 10195 C 2105 10061 2034 9960 1946 9914 L 1892 9886 L 1938 9859 C 2038 9802 2109 9701 2147 9560 C 2174 9460 2171 9204 2142 9088 C 2087 8867 1970 8726 1792 8669 C 1697 8638 1473 8631 1363 8655 C 1159 8700 1030 8827 970 9042 C 949 9116 923 9369 934 9395 C 938 9408 976 9410 1155 9410 L 1370 9410 L 1370 9378 C 1373 9235 1394 9113 1426 9064 C 1448 9031 1501 9010 1562 9010 C 1633 9010 1675 9036 1703 9098 C 1723 9141 1725 9161 1725 9325 C 1725 9490 1723 9510 1702 9562 C 1679 9620 1638 9663 1591 9682 C 1577 9688 1529 9695 1485 9699 L 1405 9705 L 1405 9865 L 1405 10025 L 1495 10031 C 1622 10039 1659 10061 1702 10155 C 1723 10200 1725 10220 1725 10360 C 1725 10506 1724 10518 1700 10564 C 1668 10625 1625 10650 1550 10650 C 1421 10650 1374 10559 1371 10308 L 1370 10250 L 1149 10250 L 927 10250 L 934 10381 C 938 10453 950 10546 960 10587 C 1013 10792 1147 10926 1354 10980 C 1444 11004 1629 11006 1732 10985 Z M 8134 7476 C 8152 7469 8176 7449 8187 7434 C 8198 7418 8381 7044 8593 6602 C 9006 5747 9001 5759 8960 5693 C 8911 5612 8777 5606 8728 5682 C 8720 5695 8579 5984 8415 6325 C 8251 6666 8115 6947 8113 6949 C 8105 6960 8108 6970 7640 5415 C 7513 4992 7366 4506 7315 4335 C 7181 3890 6838 2750 6704 2305 C 6642 2096 6584 1910 6575 1892 C 6555 1848 6506 1820 6448 1820 C 6409 1820 6394 1826 6365 1851 C 6346 1868 6326 1898 6320 1918 C 6314 1939 6281 2124 6246 2330 C 6095 3212 5899 4358 5892 4395 L 5884 4435 L 5854 4380 C 5837 4350 5687 4072 5520 3762 C 5192 3154 5196 3160 5114 3160 C 5061 3160 5010 3189 4989 3231 C 4977 3254 4928 3573 4834 4233 C 4758 4765 4694 5197 4690 5193 C 4686 5188 4572 4933 4435 4625 C 4299 4317 4177 4054 4166 4041 C 4119 3988 4157 3990 3074 3990 C 2167 3990 2065 3992 2034 4006 C 1943 4049 1926 4164 2001 4236 L 2031 4265 L 3001 4270 L 3971 4275 L 4299 5010 C 4479 5414 4633 5758 4641 5775 C 4688 5872 4840 5874 4886 5777 C 4895 5757 4957 5355 5044 4753 C 5122 4207 5188 3759 5190 3756 C 5193 3754 5335 4010 5505 4327 C 5676 4643 5823 4915 5832 4931 C 5871 4996 5963 5019 6027 4980 C 6086 4945 6072 5007 6240 4025 C 6274 3827 6328 3510 6361 3320 C 6393 3130 6434 2892 6451 2790 C 6469 2688 6486 2602 6490 2597 C 6493 2593 6522 2674 6553 2777 C 6584 2881 6688 3226 6784 3545 C 6880 3864 7063 4472 7190 4895 C 7317 5319 7487 5881 7566 6145 C 7646 6409 7763 6798 7826 7010 C 7890 7222 7949 7408 7958 7424 C 7978 7458 8033 7490 8073 7490 C 8088 7490 8116 7484 8134 7476 Z M 8709 5074 C 8780 5042 8869 4977 8963 4890 L 9040 4818 L 9107 4880 C 9354 5112 9527 5158 9746 5050 C 9940 4955 10060 4742 10060 4496 C 10060 4348 10020 4225 9935 4111 C 9917 4086 9707 3872 9470 3635 L 9040 3205 L 8581 3665 C 8147 4100 8121 4129 8086 4200 C 8067 4241 8043 4302 8035 4335 C 8016 4412 8016 4578 8035 4655 C 8057 4740 8121 4866 8174 4926 C 8313 5084 8545 5148 8709 5074 Z"></path>
</g>
</svg>
