<?xml version="1.0" standalone="no"?>
<!DOCTYPE svg PUBLIC "-//W3C//DTD SVG 20010904//EN"
 "http://www.w3.org/TR/2001/REC-SVG-20010904/DTD/svg10.dtd">
<svg version="1.0" xmlns="http://www.w3.org/2000/svg"
 width="1200.000000pt" height="1200.000000pt" viewBox="0 0 1200.000000 1200.000000"
 preserveAspectRatio="xMidYMid meet">
<g transform="translate(0.000000,1200.000000) scale(0.100000,-0.100000)"
fill="#c5192d" stroke="none">
<path d="M 0 6000 L 0 0 L 6000 0 L 12000 0 L 12000 6000 L 12000 12000 L 6000 12000 L 0 12000 L 0 6000 Z M 1990 10260 L 1990 9550 L 2105 9550 L 2220 9550 L 2220 9385 L 2220 9220 L 2105 9220 L 1990 9220 L 1990 8950 L 1990 8680 L 1790 8680 L 1590 8680 L 1590 8950 L 1590 9220 L 1245 9220 L 900 9220 L 900 9393 L 900 9565 L 1195 10258 C 1357 10639 1492 10955 1495 10960 C 1499 10966 1597 10970 1746 10970 L 1990 10970 L 1990 10260 Z M 9301 7143 C 9361 7112 9413 7051 9430 6992 C 9435 6972 9440 6884 9440 6798 L 9440 6640 L 9185 6640 L 8930 6640 L 8930 6810 C 8930 7002 8936 7029 8998 7094 C 9076 7176 9197 7195 9301 7143 Z M 2920 4683 L 2920 2545 L 3308 2437 C 3689 2331 3812 2297 4805 2020 L 5305 1880 L 5439 1880 L 5572 1880 L 5894 1984 C 6070 2042 6287 2112 6375 2140 C 6711 2248 7838 2613 7900 2633 L 7965 2655 L 7968 4738 C 7969 5884 7974 6820 7978 6818 C 7983 6816 8035 6777 8093 6730 L 8200 6645 L 8200 4565 L 8200 2485 L 8133 2466 C 8060 2445 7865 2384 7570 2290 C 7468 2258 7151 2157 6865 2066 C 6579 1975 6174 1847 5965 1781 L 5586 1660 L 5437 1660 L 5289 1660 L 5057 1724 C 4850 1782 4451 1892 3115 2262 C 2895 2322 2707 2376 2698 2381 C 2681 2390 2680 2502 2680 4515 L 2680 6638 L 2793 6729 C 2854 6778 2908 6819 2913 6819 C 2917 6820 2920 5858 2920 4683 Z M 3602 6554 C 3846 6413 4099 6267 4165 6229 C 4231 6191 4517 6026 4800 5862 L 5315 5565 L 5318 3845 C 5319 2900 5317 2123 5312 2118 C 5308 2114 5275 2120 5240 2131 C 5171 2152 4408 2382 3785 2570 C 3582 2631 3388 2689 3355 2700 C 3322 2710 3262 2728 3223 2740 L 3150 2761 L 3150 4785 C 3150 5899 3152 6810 3154 6810 C 3157 6810 3358 6695 3602 6554 Z M 7740 4787 L 7740 2764 L 7068 2562 C 6698 2451 6208 2304 5980 2235 C 5752 2166 5562 2110 5558 2110 C 5553 2110 5550 2883 5550 3829 C 5550 5192 5553 5550 5563 5558 C 5574 5567 5827 5714 6630 6177 C 6831 6293 7159 6483 7360 6599 C 7561 6715 7728 6810 7733 6810 C 7737 6810 7740 5900 7740 4787 Z M 9440 4637 L 9440 2834 L 9315 2395 C 9246 2154 9187 1954 9185 1952 C 9179 1946 9185 1925 9050 2396 L 8930 2817 L 8930 4629 L 8930 6440 L 9185 6440 L 9440 6440 L 9440 4637 Z"></path>
<path d="M1541 10378 c-24 -68 -97 -274 -163 -458 -67 -184 -123 -343 -126 -352 -4 -17 9 -18 167 -18 l171 0 0 475 c0 261 -1 475 -3 475 -1 0 -22 -55 -46 -122z"></path>
</g>
</svg>
