<?xml version="1.0" standalone="no"?>
<!DOCTYPE svg PUBLIC "-//W3C//DTD SVG 20010904//EN"
 "http://www.w3.org/TR/2001/REC-SVG-20010904/DTD/svg10.dtd">
<svg version="1.0" xmlns="http://www.w3.org/2000/svg"
 width="1200.000000pt" height="1200.000000pt" viewBox="0 0 1200.000000 1200.000000"
 preserveAspectRatio="xMidYMid meet">
<g transform="translate(0.000000,1200.000000) scale(0.100000,-0.100000)"
fill="#bf8b2e" stroke="none">
<path d="M 0 6000 L 0 0 L 6000 0 L 12000 0 L 12000 6000 L 12000 12000 L 6000 12000 L 0 12000 L 0 6000 Z M 2535 10976 C 2667 10940 2773 10865 2841 10759 C 2946 10594 2958 10318 2869 10091 C 2827 9985 2793 9930 2478 9458 C 2325 9228 2200 9036 2200 9030 C 2200 9024 2316 9020 2535 9020 L 2870 9020 L 2870 8850 L 2870 8680 L 2285 8680 L 1700 8680 L 1700 8837 L 1700 8994 L 1824 9184 C 1891 9289 2046 9528 2167 9715 C 2467 10178 2490 10227 2490 10405 C 2490 10507 2468 10567 2418 10603 C 2378 10633 2303 10637 2247 10612 C 2166 10576 2133 10493 2123 10308 L 2117 10190 L 1907 10190 L 1698 10190 L 1703 10343 C 1711 10576 1757 10713 1870 10834 C 1953 10922 2052 10971 2195 10993 C 2256 11003 2476 10992 2535 10976 Z M 1450 9825 L 1450 8680 L 1230 8680 L 1010 8680 L 1010 9595 C 1010 10098 1008 10510 1005 10510 C 1003 10510 977 10501 948 10489 C 869 10458 702 10400 690 10400 C 684 10400 680 10455 680 10558 L 680 10716 L 833 10792 C 920 10836 1011 10890 1045 10919 L 1105 10968 L 1278 10969 L 1450 10970 L 1450 9825 Z M 4340 6130 C 4782 6033 5068 5873 5391 5543 C 5691 5236 5920 4897 6230 4300 C 6456 3864 6578 3684 6799 3456 C 6979 3272 7137 3161 7376 3051 C 7824 2846 8250 2850 8614 3065 C 8884 3224 9066 3512 9138 3895 C 9163 4029 9162 4457 9136 4595 C 9099 4798 9023 4989 8924 5127 C 8710 5426 8310 5610 7870 5611 C 7747 5612 7723 5609 7596 5576 C 7201 5473 6925 5274 6597 4855 C 6464 4685 6478 4681 6328 4940 C 6168 5218 6174 5205 6189 5233 C 6208 5269 6381 5460 6484 5560 C 6790 5857 7070 6017 7456 6114 C 7688 6173 7851 6183 8093 6155 C 8562 6100 8949 5918 9236 5617 C 9481 5361 9631 5034 9697 4610 C 9722 4448 9722 4043 9697 3880 C 9658 3631 9608 3465 9510 3265 C 9422 3084 9342 2972 9200 2830 C 8911 2540 8567 2384 8144 2350 C 7856 2326 7520 2384 7233 2506 C 6895 2650 6662 2806 6415 3054 C 6144 3326 5991 3552 5699 4113 C 5384 4718 5095 5107 4795 5333 C 4569 5503 4260 5610 3996 5610 C 3497 5610 3084 5388 2888 5014 C 2759 4767 2702 4437 2728 4092 C 2745 3870 2775 3749 2847 3605 C 3018 3261 3314 3041 3710 2960 C 3900 2921 4180 2934 4365 2991 C 4439 3013 4599 3088 4637 3118 L 4660 3135 L 4525 3258 C 4451 3326 4390 3386 4390 3393 C 4390 3400 4394 3411 4398 3417 C 4402 3424 4552 3470 4730 3520 C 4909 3570 5125 3631 5210 3655 C 5574 3757 5581 3759 5594 3723 C 5602 3703 5413 2540 5399 2523 C 5393 2516 5380 2510 5370 2510 C 5360 2510 5293 2564 5220 2629 L 5088 2748 L 4982 2678 C 4772 2540 4554 2451 4318 2408 C 4150 2378 3788 2375 3635 2404 C 2910 2538 2354 3066 2212 3755 C 2152 4046 2156 4485 2221 4787 C 2393 5582 2983 6084 3840 6164 C 3865 6166 3955 6166 4040 6165 C 4169 6162 4220 6156 4340 6130 Z"></path>
</g>
</svg>
