<?xml version="1.0" standalone="no"?>
<!DOCTYPE svg PUBLIC "-//W3C//DTD SVG 20010904//EN"
 "http://www.w3.org/TR/2001/REC-SVG-20010904/DTD/svg10.dtd">
<svg version="1.0" xmlns="http://www.w3.org/2000/svg"
 width="1200.000000pt" height="1200.000000pt" viewBox="0 0 1200.000000 1200.000000"
 preserveAspectRatio="xMidYMid meet">
<g transform="translate(0.000000,1200.000000) scale(0.100000,-0.100000)"
fill="#fd6925" stroke="none">
<path d="M 0 6000 L 0 0 L 6000 0 L 12000 0 L 12000 6000 L 12000 12000 L 6000 12000 L 0 12000 L 0 6000 Z M 1750 10975 C 1973 10907 2103 10737 2145 10460 C 2167 10320 2166 9348 2145 9205 C 2097 8886 1971 8721 1733 8663 C 1642 8642 1429 8642 1337 8664 C 1299 8673 1243 8692 1212 8707 C 1063 8778 969 8955 966 9175 L 965 9265 L 1170 9265 L 1375 9265 L 1381 9179 C 1391 9037 1436 8980 1540 8980 C 1674 8980 1710 9083 1710 9474 L 1710 9662 L 1671 9627 C 1564 9531 1351 9514 1193 9591 C 1044 9663 954 9839 929 10111 C 916 10249 929 10433 961 10557 C 1020 10790 1163 10937 1375 10984 C 1465 11004 1670 10999 1750 10975 Z M 6220 6495 C 6283 6458 6423 6377 6530 6315 C 7224 5915 7376 5826 7387 5811 C 7397 5799 7399 5632 7400 5083 L 7400 4370 L 7427 4353 C 7442 4343 7720 4182 8044 3995 C 8462 3754 8638 3647 8647 3630 C 8665 3594 8665 2146 8647 2111 C 8640 2096 8588 2059 8520 2020 C 7485 1420 7338 1338 7312 1342 C 7297 1344 7011 1505 6676 1698 L 6067 2050 L 5481 1711 C 5159 1525 4881 1366 4863 1356 C 4804 1326 4904 1276 3970 1814 C 3725 1955 3515 2082 3503 2096 L 3480 2121 L 3480 2875 L 3480 3628 L 3508 3652 C 3523 3665 3805 3830 4133 4020 L 4730 4364 L 4730 5076 C 4730 5739 4731 5789 4748 5809 C 4757 5821 5053 5997 5405 6201 C 5941 6511 6050 6570 6075 6566 C 6092 6564 6157 6532 6220 6495 Z"></path><path d="M1464 10652 c-58 -37 -80 -117 -90 -321 -7 -156 8 -318 34 -369 26
-51 75 -82 128 -82 58 0 92 14 137 58 l37 36 0 226 c0 298 -16 387 -79 444
-32 29 -126 33 -167 8z"></path><path d="M4900 5040 c0 -313 3 -570 6 -570 11 0 984 563 984 569 0 6 -975 571
-985 571 -3 0 -5 -256 -5 -570z"></path><path d="M7014 5489 c-115 -67 -330 -191 -479 -276 -148 -86 -275 -161 -282
-167 -9 -8 32 -36 165 -112 97 -56 318 -183 490 -283 172 -100 317 -181 323
-181 5 0 9 223 9 570 0 314 -4 570 -8 570 -5 0 -102 -54 -218 -121z"></path><path d="M5485 4606 c-269 -156 -489 -287 -488 -291 1 -4 221 -135 490 -290
l488 -281 3 289 c1 158 1 416 0 572 l-3 284 -490 -283z"></path><path d="M6150 4314 l0 -576 43 25 c59 34 741 428 857 494 52 31 96 56 98 58
1 1 -98 60 -220 130 -123 71 -346 200 -496 287 -151 87 -276 158 -278 158 -2
0 -4 -259 -4 -576z"></path><path d="M7089 4087 c-125 -73 -366 -213 -537 -312 -172 -99 -308 -183 -304
-186 4 -4 189 -113 412 -241 724 -419 655 -381 682 -367 56 30 1044 601 1050
608 6 5 -1043 620 -1071 628 -3 1 -108 -58 -232 -130z"></path><path d="M3650 2817 l0 -624 518 -298 c284 -164 527 -305 540 -313 l22 -14 -2
628 -3 628 -50 29 c-171 100 -1017 587 -1020 587 -3 0 -5 -281 -5 -623z"></path><path d="M5478 3157 c-268 -155 -488 -284 -488 -287 0 -5 960 -561 981 -568 5
-2 9 216 9 567 0 314 -3 571 -7 570 -5 0 -227 -127 -495 -282z"></path><path d="M7940 3131 l-535 -309 -3 -621 c-1 -450 1 -621 9 -621 10 0 958 542
1042 596 l37 24 0 620 c0 341 -3 620 -7 620 -5 0 -249 -139 -543 -309z"></path><path d="M4900 2144 l0 -576 33 20 c17 11 237 138 487 282 250 144 459 266
464 270 4 5 -2 15 -15 23 -34 22 -962 557 -966 557 -2 0 -3 -259 -3 -576z"></path>
</g>
</svg>
