<?xml version="1.0" standalone="no"?>
<!DOCTYPE svg PUBLIC "-//W3C//DTD SVG 20010904//EN"
 "http://www.w3.org/TR/2001/REC-SVG-20010904/DTD/svg10.dtd">
<svg version="1.0" xmlns="http://www.w3.org/2000/svg"
 width="1200.000000pt" height="1200.000000pt" viewBox="0 0 1200.000000 1200.000000"
 preserveAspectRatio="xMidYMid meet">
<g transform="translate(0.000000,1200.000000) scale(0.100000,-0.100000)"
fill="#56c02b" stroke="none">
<path d="M 0 6000 L 0 0 L 6000 0 L 12000 0 L 12000 6000 L 12000 12000 L 6000 12000 L 0 12000 L 0 6000 Z M 1480 9825 L 1480 8680 L 1260 8680 L 1040 8680 L 1040 9595 C 1040 10098 1038 10510 1035 10510 C 1033 10510 1007 10500 978 10489 C 913 10463 729 10400 718 10400 C 714 10400 710 10471 710 10558 L 710 10717 L 825 10773 C 947 10833 1085 10917 1115 10950 C 1132 10969 1146 10970 1307 10970 L 1480 10970 L 1480 9825 Z M 2848 10783 L 2845 10595 L 2498 10592 C 2306 10591 2150 10586 2149 10582 C 2144 10529 2125 10113 2127 10108 C 2129 10104 2147 10112 2167 10126 C 2253 10184 2457 10217 2571 10190 C 2826 10131 2956 9846 2937 9385 C 2924 9072 2872 8903 2753 8784 C 2657 8687 2515 8640 2320 8640 C 2070 8640 1895 8723 1816 8878 C 1770 8969 1730 9170 1730 9311 L 1730 9340 L 1945 9340 L 2160 9340 L 2160 9288 C 2161 9207 2178 9102 2199 9054 C 2225 8996 2269 8970 2340 8970 C 2482 8970 2520 9063 2520 9417 C 2520 9768 2478 9870 2330 9870 C 2241 9870 2174 9813 2147 9713 L 2136 9670 L 1948 9670 L 1760 9670 L 1760 9763 C 1760 9929 1781 10864 1786 10918 L 1791 10970 L 2321 10970 L 2850 10970 L 2848 10783 Z M 5053 6500 C 5188 6466 5322 6388 5411 6293 C 5548 6146 5620 5966 5620 5771 C 5620 5672 5594 5537 5565 5480 C 5557 5464 5550 5449 5550 5446 C 5550 5443 5576 5433 5608 5424 C 5759 5381 5929 5264 6027 5135 C 6408 4634 6150 3927 5535 3789 C 5487 3778 5344 3776 4816 3778 C 4209 3782 4150 3783 4082 3801 C 3944 3836 3827 3919 3743 4042 C 3680 4135 3650 4225 3643 4342 C 3634 4486 3671 4615 3756 4733 L 3793 4784 L 3754 4815 C 3581 4949 3498 5145 3528 5353 C 3544 5465 3600 5578 3679 5658 C 3776 5757 3877 5805 4024 5824 L 4114 5836 L 4126 5905 C 4176 6192 4400 6431 4684 6501 C 4785 6526 4955 6526 5053 6500 Z M 7574 6481 C 7615 6461 7665 6425 7699 6391 L 7756 6334 L 7806 6347 C 7836 6356 7893 6359 7955 6357 C 8041 6355 8063 6350 8110 6326 C 8237 6262 8324 6135 8274 6086 C 8252 6063 8239 6066 8189 6104 C 8092 6179 7946 6195 7810 6146 C 7682 6100 7690 6098 7626 6184 C 7527 6315 7428 6372 7292 6376 C 7207 6378 7180 6389 7180 6420 C 7180 6480 7281 6522 7415 6518 C 7495 6515 7514 6511 7574 6481 Z M 7392 5901 C 7466 5872 7567 5805 7575 5779 C 7595 5718 7547 5685 7489 5717 C 7437 5745 7267 5742 7180 5711 C 7096 5681 7018 5634 6941 5565 C 6907 5535 6870 5510 6859 5510 C 6848 5510 6818 5526 6792 5545 C 6730 5593 6619 5646 6540 5666 C 6443 5691 6310 5682 6238 5647 C 6208 5632 6176 5620 6168 5620 C 6145 5620 6127 5647 6127 5682 C 6127 5706 6137 5722 6176 5756 C 6285 5853 6433 5899 6571 5880 C 6651 5868 6654 5868 6761 5818 L 6847 5778 L 6923 5828 C 6989 5871 7063 5903 7145 5924 C 7193 5936 7336 5922 7392 5901 Z M 7227 4575 C 7302 4557 7396 4516 7474 4466 L 7532 4429 L 7597 4470 C 7666 4514 7727 4543 7800 4566 C 7865 4587 8023 4595 8093 4580 C 8171 4564 8293 4501 8358 4445 C 8400 4407 8410 4393 8410 4366 C 8410 4313 8369 4293 8325 4324 C 8286 4351 8197 4370 8110 4370 C 7932 4370 7755 4300 7605 4170 C 7578 4147 7548 4130 7534 4130 C 7519 4130 7480 4154 7432 4192 C 7339 4266 7204 4332 7096 4355 C 6981 4380 6841 4372 6767 4337 C 6737 4322 6706 4310 6699 4310 C 6674 4310 6660 4332 6660 4371 C 6660 4404 6666 4413 6718 4454 C 6786 4509 6881 4558 6953 4576 C 7024 4593 7152 4593 7227 4575 Z M 5104 3554 C 5113 3530 5111 2777 5102 2762 C 5095 2753 5053 2750 4924 2752 L 4755 2755 L 4752 3150 C 4751 3367 4752 3551 4755 3557 C 4758 3567 4802 3570 4929 3570 C 5074 3570 5099 3568 5104 3554 Z M 8535 2398 C 8538 2385 8539 2305 8538 2220 L 8535 2065 L 5940 2065 L 3345 2065 L 3342 2230 C 3341 2320 3342 2400 3344 2407 C 3348 2418 3835 2420 5939 2420 L 8530 2420 L 8535 2398 Z M 8528 1788 C 8546 1770 8545 1456 8526 1441 C 8516 1433 7831 1431 5929 1432 L 3345 1435 L 3342 1604 C 3340 1720 3343 1777 3351 1786 C 3361 1798 3759 1800 5939 1800 C 7930 1800 8519 1797 8528 1788 Z"></path>
</g>
</svg>
