<?xml version="1.0" standalone="no"?>
<!DOCTYPE svg PUBLIC "-//W3C//DTD SVG 20010904//EN"
 "http://www.w3.org/TR/2001/REC-SVG-20010904/DTD/svg10.dtd">
<svg version="1.0" xmlns="http://www.w3.org/2000/svg"
 width="1200.000000pt" height="1200.000000pt" viewBox="0 0 1200.000000 1200.000000"
 preserveAspectRatio="xMidYMid meet">
<g transform="translate(0.000000,1200.000000) scale(0.100000,-0.100000)"
fill="#26bde2" stroke="none">
<path d="M 0 6000 L 0 0 L 6000 0 L 12000 0 L 12000 6000 L 12000 12000 L 6000 12000 L 0 12000 L 0 6000 Z M 1794 10975 C 2015 10914 2122 10760 2145 10473 L 2152 10380 L 1943 10380 L 1733 10380 L 1727 10464 C 1716 10615 1681 10660 1572 10660 C 1511 10660 1506 10658 1470 10623 C 1414 10566 1400 10490 1393 10205 L 1387 9975 L 1433 10016 C 1497 10073 1584 10100 1698 10100 C 1899 10100 2028 10022 2105 9855 C 2159 9740 2171 9673 2177 9483 C 2185 9231 2162 9094 2085 8935 C 1988 8734 1835 8648 1570 8647 C 1374 8646 1246 8694 1141 8806 C 1048 8905 995 9022 965 9194 C 943 9322 943 10298 965 10445 C 1016 10781 1148 10942 1412 10990 C 1490 11003 1724 10994 1794 10975 Z M 8226 7158 C 8246 7138 8253 7194 8161 6605 C 8133 6429 8063 5977 8005 5600 C 7947 5223 7852 4609 7794 4235 C 7736 3861 7667 3411 7639 3235 C 7612 3059 7580 2854 7569 2780 C 7553 2672 7545 2642 7528 2628 C 7509 2611 7471 2610 7045 2610 L 6581 2610 L 6575 2557 C 6568 2493 6520 1932 6520 1908 C 6520 1891 6536 1890 6707 1890 L 6895 1890 L 6450 1445 L 6005 1000 L 5568 1437 C 5327 1678 5130 1878 5130 1882 C 5130 1887 5213 1890 5315 1890 C 5500 1890 5500 1890 5500 1912 C 5500 1941 5451 2512 5444 2568 L 5439 2610 L 4985 2610 C 4563 2610 4531 2611 4510 2628 C 4491 2644 4483 2674 4453 2856 C 4434 2971 4354 3459 4274 3940 C 4119 4875 3997 5617 3844 6540 C 3792 6856 3751 7124 3752 7135 C 3759 7182 3673 7180 6007 7177 C 8071 7175 8210 7174 8226 7158 Z"></path><path d="M1516 9758 c-22 -6 -58 -29 -83 -54 l-45 -43 5 -248 c5 -275 14 -326
68 -388 57 -64 152 -71 209 -13 55 54 65 114 65 378 0 231 0 236 -25 284 -14
28 -36 58 -50 67 -33 23 -95 30 -144 17z"></path><path d="M3950 6968 c-1 -7 36 -206 82 -442 l83 -429 115 6 c161 9 279 36 555
129 236 80 242 81 359 86 187 7 297 -19 624 -149 196 -79 348 -127 507 -161
97 -20 137 -23 330 -23 176 0 237 4 305 18 170 37 362 97 555 175 174 69 308
88 408 58 46 -14 47 -13 52 7 10 42 115 699 115 718 0 19 -38 19 -2045 19
-1629 0 -2045 -3 -2045 -12z"></path><path d="M5823 5213 c-416 -631 -471 -724 -518 -888 -67 -232 -33 -456 99
-638 145 -202 354 -291 657 -280 224 7 412 98 531 255 108 141 149 259 149
428 0 161 -37 303 -118 450 -67 122 -597 932 -614 938 -5 2 -88 -117 -186
-265z"></path>
</g>
</svg>
