<?xml version="1.0" standalone="no"?>
<!DOCTYPE svg PUBLIC "-//W3C//DTD SVG 20010904//EN"
 "http://www.w3.org/TR/2001/REC-SVG-20010904/DTD/svg10.dtd">
<svg version="1.0" xmlns="http://www.w3.org/2000/svg"
 width="1200.000000pt" height="1200.000000pt" viewBox="0 0 1200.000000 1200.000000"
 preserveAspectRatio="xMidYMid meet">
<g transform="translate(0.000000,1200.000000) scale(0.100000,-0.100000)"
fill="#00689d" stroke="none">
<path d="M 0 6000 L 0 0 L 6000 0 L 12000 0 L 12000 6000 L 12000 12000 L 6000 12000 L 0 12000 L 0 6000 Z M 2532 10986 C 2789 10940 2918 10778 2937 10478 L 2943 10380 L 2733 10380 L 2522 10380 L 2518 10468 C 2511 10613 2474 10660 2368 10660 C 2226 10660 2191 10569 2190 10197 L 2190 9988 L 2221 10015 C 2299 10080 2391 10105 2529 10098 C 2721 10088 2837 10007 2910 9833 C 2958 9717 2973 9625 2974 9435 C 2974 9201 2946 9060 2873 8918 C 2787 8753 2667 8675 2460 8651 C 2356 8638 2215 8649 2143 8674 C 1939 8746 1820 8899 1763 9161 C 1747 9236 1745 9303 1745 9815 C 1745 10432 1747 10454 1801 10626 C 1883 10882 2053 10997 2355 10999 C 2410 10999 2490 10993 2532 10986 Z M 1500 9825 L 1500 8680 L 1280 8680 L 1060 8680 L 1060 9596 C 1060 10465 1059 10512 1043 10505 C 983 10481 753 10400 743 10400 C 733 10400 730 10438 730 10558 L 730 10716 L 883 10792 C 970 10836 1061 10890 1095 10919 L 1155 10968 L 1328 10969 L 1500 10970 L 1500 9825 Z M 8788 6636 C 8775 6432 8649 6309 8450 6306 L 8375 6305 L 8378 6365 C 8389 6586 8520 6718 8729 6719 L 8793 6720 L 8788 6636 Z M 8084 6601 C 8177 6512 8208 6429 8189 6324 C 8178 6266 8144 6180 8118 6146 C 8103 6128 8102 6128 8058 6158 C 8002 6196 7948 6256 7918 6312 C 7883 6377 7886 6494 7923 6575 C 7968 6672 7977 6682 8003 6668 C 8015 6662 8051 6632 8084 6601 Z M 7766 6267 C 7865 6178 7900 6064 7865 5944 C 7847 5880 7800 5790 7786 5790 C 7767 5790 7668 5873 7639 5913 C 7594 5975 7579 6018 7578 6086 C 7578 6155 7589 6198 7632 6283 L 7660 6340 L 7688 6326 C 7704 6318 7739 6291 7766 6267 Z M 8331 6240 C 8341 6234 8350 6224 8350 6217 C 8350 6196 8261 6089 8123 5944 C 7913 5723 7854 5637 7806 5481 C 7775 5382 7768 5395 7892 5307 L 7968 5253 L 7873 5247 C 7820 5243 7775 5238 7773 5236 C 7758 5221 7821 4881 7855 4798 C 7861 4783 7856 4780 7827 4780 C 7792 4780 7791 4782 7775 4838 C 7749 4925 7721 5066 7714 5148 C 7710 5188 7704 5222 7701 5224 C 7686 5233 7527 5185 7453 5150 C 7280 5066 7179 4913 7139 4672 C 7133 4635 7126 4499 7125 4370 C 7121 4110 7109 4014 7059 3865 C 6959 3565 6736 3331 6398 3170 C 6218 3085 5980 3013 5768 2979 L 5690 2967 L 5690 2684 L 5690 2400 L 5768 2400 C 5810 2400 6015 2395 6222 2390 L 6600 2379 L 6922 2415 C 7099 2434 7245 2450 7247 2450 C 7249 2450 7250 2524 7250 2615 C 7250 2778 7250 2781 7275 2805 L 7299 2830 L 7820 2830 L 8341 2830 L 8365 2805 L 8390 2781 L 8390 2266 C 8390 1983 8387 1744 8384 1735 C 8367 1691 8349 1690 7815 1690 L 7308 1690 L 7279 1719 L 7250 1748 L 7250 1909 L 7250 2069 L 7218 2074 C 7200 2077 7057 2094 6900 2111 L 6616 2142 L 5885 2126 C 5484 2117 5070 2107 4965 2105 C 4861 2102 4555 2095 4285 2090 C 4016 2085 3708 2077 3603 2074 L 3410 2068 L 3410 2259 L 3410 2450 L 3508 2449 C 3561 2449 3954 2441 4380 2431 C 4806 2421 5158 2416 5163 2420 C 5167 2423 5169 2545 5168 2690 L 5165 2954 L 5060 2967 C 4700 3011 4492 3091 4085 3345 C 3981 3410 3843 3490 3780 3523 C 3699 3564 3675 3580 3700 3576 C 3953 3535 4173 3552 4340 3624 C 4381 3641 4498 3711 4599 3778 C 4810 3919 4896 3963 5004 3988 C 5081 4005 5103 4020 5051 4020 C 5001 4020 4836 4067 4757 4103 C 4528 4209 4357 4395 4240 4668 C 4192 4780 4153 4914 4100 5155 C 3986 5668 3883 5884 3700 5992 L 3638 6028 L 3695 6035 C 3800 6049 4116 6034 4223 6011 C 4442 5963 4647 5875 4846 5742 C 4984 5649 5088 5563 5255 5400 C 5480 5181 5645 5080 5857 5029 C 5981 4999 6159 5006 6275 5045 C 6429 5096 6547 5172 6715 5326 C 6914 5509 7088 5633 7213 5679 C 7290 5707 7398 5707 7459 5679 C 7487 5667 7547 5616 7615 5549 L 7727 5439 L 7744 5502 C 7766 5581 7826 5696 7889 5780 C 7916 5816 7998 5909 8072 5986 C 8145 6062 8227 6153 8254 6188 C 8281 6222 8305 6250 8307 6250 C 8309 6250 8320 6245 8331 6240 Z M 8676 6075 C 8714 6056 8754 6032 8764 6021 C 8782 6002 8782 6000 8762 5975 C 8735 5940 8675 5893 8625 5867 C 8565 5835 8462 5837 8390 5872 C 8360 5887 8320 5912 8301 5928 L 8266 5957 L 8311 6002 C 8393 6084 8485 6123 8570 6113 C 8589 6110 8637 6093 8676 6075 Z M 8337 5736 C 8395 5709 8494 5618 8488 5598 C 8481 5576 8390 5521 8332 5504 C 8269 5485 8189 5490 8143 5514 C 8094 5539 8016 5605 8001 5633 C 7988 5658 7988 5662 8006 5675 C 8031 5695 8119 5741 8150 5751 C 8203 5767 8284 5760 8337 5736 Z M 8420 3212 C 8442 3201 8464 3177 8478 3149 C 8516 3077 8497 3009 8426 2956 C 8399 2935 8389 2935 7822 2935 L 7245 2935 L 7212 2958 C 7165 2992 7147 3033 7152 3096 C 7157 3153 7174 3180 7225 3211 C 7253 3229 7287 3230 7820 3230 C 8348 3230 8388 3229 8420 3212 Z M 3245 2528 C 3259 2522 3281 2500 3293 2481 C 3314 2447 3315 2434 3315 2265 C 3315 2106 3313 2081 3296 2054 C 3267 2006 3231 1990 3155 1990 C 3015 1990 2991 2031 2990 2262 C 2990 2442 3002 2489 3054 2521 C 3090 2543 3203 2547 3245 2528 Z M 8437 1562 C 8477 1534 8505 1464 8496 1415 C 8487 1368 8437 1313 8392 1300 C 8369 1294 8151 1290 7815 1290 C 7304 1290 7273 1291 7233 1310 C 7172 1337 7148 1380 7153 1452 C 7156 1513 7172 1538 7225 1572 C 7254 1589 7284 1590 7830 1588 L 8405 1585 L 8437 1562 Z"></path><path d="M2324 9761 c-18 -5 -48 -18 -68 -31 -68 -42 -68 -39 -64 -332 3 -252
4 -265 27 -316 29 -64 67 -98 120 -107 91 -15 149 34 177 151 24 98 25 434 1
515 -18 59 -70 119 -105 119 -9 0 -26 2 -37 4 -11 3 -34 1 -51 -3z"></path><path d="M5324 2935 c-3 -6 -3 -125 -2 -265 l3 -255 103 -3 102 -3 0 271 0
271 -101 -3 c-59 -1 -103 -7 -105 -13z"></path>
</g>
</svg>
